%TF.GenerationSoftware,KiCad,Pcbnew,9.0.6*%
%TF.CreationDate,2026-02-02T13:39:18-08:00*%
%TF.ProjectId,sensor_unit,73656e73-6f72-45f7-956e-69742e6b6963,rev?*%
%TF.SameCoordinates,Original*%
%TF.FileFunction,Copper,L1,Top*%
%TF.FilePolarity,Positive*%
%FSLAX46Y46*%
G04 Gerber Fmt 4.6, Leading zero omitted, Abs format (unit mm)*
G04 Created by KiCad (PCBNEW 9.0.6) date 2026-02-02 13:39:18*
%MOMM*%
%LPD*%
G01*
G04 APERTURE LIST*
G04 Aperture macros list*
%AMRoundRect*
0 Rectangle with rounded corners*
0 $1 Rounding radius*
0 $2 $3 $4 $5 $6 $7 $8 $9 X,Y pos of 4 corners*
0 Add a 4 corners polygon primitive as box body*
4,1,4,$2,$3,$4,$5,$6,$7,$8,$9,$2,$3,0*
0 Add four circle primitives for the rounded corners*
1,1,$1+$1,$2,$3*
1,1,$1+$1,$4,$5*
1,1,$1+$1,$6,$7*
1,1,$1+$1,$8,$9*
0 Add four rect primitives between the rounded corners*
20,1,$1+$1,$2,$3,$4,$5,0*
20,1,$1+$1,$4,$5,$6,$7,0*
20,1,$1+$1,$6,$7,$8,$9,0*
20,1,$1+$1,$8,$9,$2,$3,0*%
%AMFreePoly0*
4,1,64,0.235711,1.439036,0.382774,1.378120,0.515127,1.289684,0.627684,1.177127,0.716120,1.044774,0.777036,0.897711,0.808090,0.741590,0.808090,0.582410,0.777036,0.426289,0.716120,0.279226,0.627684,0.146873,0.515127,0.034316,0.382774,-0.054120,0.235711,-0.115036,0.079590,-0.146090,0.031746,-0.146090,0.029264,-0.147118,-0.029264,-0.147118,-0.031746,-0.146090,-0.079590,-0.146090,
-0.235711,-0.115036,-0.382774,-0.054120,-0.515127,0.034316,-0.627684,0.146873,-0.716120,0.279226,-0.777036,0.426289,-0.808090,0.582410,-0.808090,0.729406,-0.512000,0.729406,-0.512000,0.594594,-0.477108,0.464375,-0.409702,0.347625,-0.314375,0.252298,-0.197625,0.184892,-0.067406,0.150000,0.067406,0.150000,0.197625,0.184892,0.314375,0.252298,0.409702,0.347625,0.477108,0.464375,
0.512000,0.594594,0.512000,0.729406,0.477108,0.859625,0.409702,0.976375,0.314375,1.071702,0.197625,1.139108,0.067406,1.174000,-0.067406,1.174000,-0.197625,1.139108,-0.314375,1.071702,-0.409702,0.976375,-0.477108,0.859625,-0.512000,0.729406,-0.808090,0.729406,-0.808090,0.741590,-0.777036,0.897711,-0.716120,1.044774,-0.627684,1.177127,-0.515127,1.289684,-0.382774,1.378120,
-0.235711,1.439036,-0.079590,1.470090,0.079590,1.470090,0.235711,1.439036,0.235711,1.439036,$1*%
G04 Aperture macros list end*
%TA.AperFunction,SMDPad,CuDef*%
%ADD10R,0.660400X1.752600*%
%TD*%
%TA.AperFunction,SMDPad,CuDef*%
%ADD11RoundRect,0.500000X-1.000000X-0.500000X1.000000X-0.500000X1.000000X0.500000X-1.000000X0.500000X0*%
%TD*%
%TA.AperFunction,HeatsinkPad*%
%ADD12RoundRect,0.250000X-1.500000X-1.500000X1.500000X-1.500000X1.500000X1.500000X-1.500000X1.500000X0*%
%TD*%
%TA.AperFunction,SMDPad,CuDef*%
%ADD13RoundRect,0.250000X-0.900000X-0.400000X0.900000X-0.400000X0.900000X0.400000X-0.900000X0.400000X0*%
%TD*%
%TA.AperFunction,SMDPad,CuDef*%
%ADD14C,1.300000*%
%TD*%
%TA.AperFunction,SMDPad,CuDef*%
%ADD15RoundRect,0.130500X-0.130500X0.169500X-0.130500X-0.169500X0.130500X-0.169500X0.130500X0.169500X0*%
%TD*%
%TA.AperFunction,SMDPad,CuDef*%
%ADD16FreePoly0,0.000000*%
%TD*%
%TA.AperFunction,SMDPad,CuDef*%
%ADD17RoundRect,0.250000X0.262500X0.450000X-0.262500X0.450000X-0.262500X-0.450000X0.262500X-0.450000X0*%
%TD*%
%TA.AperFunction,SMDPad,CuDef*%
%ADD18R,0.508000X0.355600*%
%TD*%
%TA.AperFunction,SMDPad,CuDef*%
%ADD19RoundRect,0.250000X-0.250000X-0.475000X0.250000X-0.475000X0.250000X0.475000X-0.250000X0.475000X0*%
%TD*%
%TA.AperFunction,ViaPad*%
%ADD20C,0.600000*%
%TD*%
%TA.AperFunction,Conductor*%
%ADD21C,0.200000*%
%TD*%
%TA.AperFunction,Conductor*%
%ADD22C,0.500000*%
%TD*%
G04 APERTURE END LIST*
D10*
%TO.P,U2,1,SDA*%
%TO.N,Net-(U1-GPIO4_A3_D3_SDA)*%
X158190000Y-76250000D03*
%TO.P,U2,2,SCL*%
%TO.N,Net-(U1-GPIO6_A5_D5_SCL)*%
X159460000Y-76250000D03*
%TO.P,U2,3,VIN*%
%TO.N,GND*%
X160730000Y-76250000D03*
%TO.P,U2,4,GND*%
%TO.N,Net-(MK1-VDD)*%
X162000000Y-76250000D03*
%TD*%
D11*
%TO.P,U1,1,GPIO1_A0_D0*%
%TO.N,Net-(MK1-BCLK)*%
X136020000Y-71500000D03*
%TO.P,U1,2,GPIO2_A1_D1*%
%TO.N,Net-(MK1-WS)*%
X136020000Y-74040000D03*
%TO.P,U1,3,GPIO3_A2_D2*%
%TO.N,Net-(MK1-DATA)*%
X136020000Y-76580000D03*
%TO.P,U1,4,GPIO4_A3_D3*%
%TO.N,unconnected-(U1-GPIO4_A3_D3-Pad4)*%
X136020000Y-79120000D03*
%TO.P,U1,5,GPIO4_A3_D3_SDA*%
%TO.N,Net-(U1-GPIO4_A3_D3_SDA)*%
X136020000Y-81660000D03*
%TO.P,U1,6,GPIO6_A5_D5_SCL*%
%TO.N,Net-(U1-GPIO6_A5_D5_SCL)*%
X136020000Y-84200000D03*
%TO.P,U1,7,GPIO43_TX_D6*%
%TO.N,unconnected-(U1-GPIO43_TX_D6-Pad7)*%
X136020000Y-86740000D03*
%TO.P,U1,8,GPIO44_D7_RX*%
%TO.N,unconnected-(U1-GPIO44_D7_RX-Pad8)*%
X153020000Y-86740000D03*
%TO.P,U1,9,GPIO7_A8_D8_SCK*%
%TO.N,unconnected-(U1-GPIO7_A8_D8_SCK-Pad9)*%
X153020000Y-84200000D03*
%TO.P,U1,10,GPIO8_A9_D9_CIPO*%
%TO.N,unconnected-(U1-GPIO8_A9_D9_CIPO-Pad10)*%
X153020000Y-81660000D03*
%TO.P,U1,11,GPIO9_A10_D10_COPI*%
%TO.N,unconnected-(U1-GPIO9_A10_D10_COPI-Pad11)*%
X153020000Y-79120000D03*
%TO.P,U1,12,3V3*%
%TO.N,Net-(MK1-VDD)*%
X153020000Y-76580000D03*
%TO.P,U1,13,GND*%
%TO.N,GND*%
X153020000Y-74040000D03*
%TO.P,U1,14,5V*%
%TO.N,unconnected-(U1-5V-Pad14)*%
X153020000Y-71500000D03*
D12*
%TO.P,U1,15,+BATT*%
%TO.N,unconnected-(U1-+BATT-Pad15)*%
X146620000Y-79720000D03*
D13*
%TO.P,U1,16,-BATT*%
%TO.N,unconnected-(U1--BATT-Pad16)*%
X140020000Y-78720000D03*
%TO.P,U1,17*%
%TO.N,N/C*%
X140020000Y-76820000D03*
D14*
%TO.P,U1,18*%
X143250000Y-70500000D03*
%TO.P,U1,19*%
X143250000Y-73080000D03*
%TO.P,U1,20*%
X143250000Y-75620000D03*
%TO.P,U1,21*%
X145790000Y-75620000D03*
%TO.P,U1,22*%
X145790000Y-73080000D03*
%TO.P,U1,23*%
X145790000Y-70500000D03*
%TD*%
D15*
%TO.P,MK1,1,WS*%
%TO.N,Net-(MK1-WS)*%
X136864000Y-61600000D03*
%TO.P,MK1,2,SEL*%
%TO.N,GND*%
X136042000Y-61600000D03*
D16*
%TO.P,MK1,3,GND*%
X134790000Y-63162000D03*
D15*
%TO.P,MK1,4,BCLK*%
%TO.N,Net-(MK1-BCLK)*%
X136042000Y-63400000D03*
%TO.P,MK1,5,VDD*%
%TO.N,Net-(MK1-VDD)*%
X136864000Y-63400000D03*
%TO.P,MK1,6,DATA*%
%TO.N,Net-(MK1-DATA)*%
X136864000Y-62500000D03*
%TD*%
D17*
%TO.P,R4,1*%
%TO.N,Net-(MK1-VDD)*%
X159162500Y-82500000D03*
%TO.P,R4,2*%
%TO.N,Net-(U1-GPIO6_A5_D5_SCL)*%
X157337500Y-82500000D03*
%TD*%
%TO.P,R5,1*%
%TO.N,Net-(MK1-VDD)*%
X159162500Y-80000000D03*
%TO.P,R5,2*%
%TO.N,Net-(U1-GPIO4_A3_D3_SDA)*%
X157337500Y-80000000D03*
%TD*%
D18*
%TO.P,U5,1,GND*%
%TO.N,GND*%
X157250000Y-87949998D03*
%TO.P,U5,2,CSB*%
%TO.N,Net-(MK1-VDD)*%
X157250000Y-87300000D03*
%TO.P,U5,3,SDI*%
%TO.N,Net-(U1-GPIO4_A3_D3_SDA)*%
X157250000Y-86649998D03*
%TO.P,U5,4,SCK*%
%TO.N,Net-(U1-GPIO6_A5_D5_SCL)*%
X157250000Y-86000000D03*
%TO.P,U5,5,SDO*%
%TO.N,GND*%
X159299998Y-86000000D03*
%TO.P,U5,6,VDDIO*%
%TO.N,Net-(MK1-VDD)*%
X159299998Y-86649998D03*
%TO.P,U5,7,GND*%
%TO.N,GND*%
X159299998Y-87300000D03*
%TO.P,U5,8,VDD*%
%TO.N,Net-(MK1-VDD)*%
X159299998Y-87949998D03*
%TD*%
D19*
%TO.P,C3,1*%
%TO.N,Net-(MK1-VDD)*%
X157550000Y-69520000D03*
%TO.P,C3,2*%
%TO.N,GND*%
X159450000Y-69520000D03*
%TD*%
%TO.P,C2,1*%
%TO.N,Net-(MK1-VDD)*%
X157550000Y-66510000D03*
%TO.P,C2,2*%
%TO.N,GND*%
X159450000Y-66510000D03*
%TD*%
%TO.P,C1,1*%
%TO.N,Net-(MK1-VDD)*%
X157550000Y-63500000D03*
%TO.P,C1,2*%
%TO.N,GND*%
X159450000Y-63500000D03*
%TD*%
D20*
%TO.N,GND*%
X156250000Y-72500000D03*
X145250000Y-65250000D03*
X155000000Y-61250000D03*
X159000000Y-84500000D03*
X162250000Y-79000000D03*
X135500000Y-65500000D03*
X138750000Y-65500000D03*
X156250000Y-77250000D03*
X161500000Y-84500000D03*
X145250000Y-61250000D03*
%TD*%
D21*
%TO.N,Net-(MK1-VDD)*%
X136864000Y-63400000D02*
X157450000Y-63400000D01*
D22*
X157550000Y-69520000D02*
X157550000Y-63500000D01*
X157550000Y-73550000D02*
X154520000Y-76580000D01*
D21*
X158916200Y-86649998D02*
X159299998Y-86649998D01*
X161724000Y-62474000D02*
X158576000Y-62474000D01*
X159299998Y-86649998D02*
X159683800Y-86649998D01*
X157450000Y-63400000D02*
X157550000Y-63500000D01*
X157250000Y-87300000D02*
X158266198Y-87300000D01*
X159162500Y-82500000D02*
X159162500Y-80000000D01*
X162000000Y-76250000D02*
X162000000Y-77162500D01*
X162000000Y-77162500D02*
X159162500Y-80000000D01*
X158916196Y-87949998D02*
X159299998Y-87949998D01*
X162000000Y-62750000D02*
X161724000Y-62474000D01*
D22*
X154520000Y-76580000D02*
X153020000Y-76580000D01*
D21*
X159683800Y-86649998D02*
X159854998Y-86478800D01*
X159854998Y-86478800D02*
X159854998Y-83192498D01*
X158266198Y-87300000D02*
X158916196Y-87949998D01*
X162000000Y-62750000D02*
X162000000Y-76250000D01*
X158266198Y-87300000D02*
X158916200Y-86649998D01*
D22*
X157550000Y-73550000D02*
X157550000Y-69520000D01*
D21*
X159854998Y-83192498D02*
X159162500Y-82500000D01*
X157550000Y-63500000D02*
X158576000Y-62474000D01*
%TO.N,GND*%
X159299998Y-84799998D02*
X159000000Y-84500000D01*
X160730000Y-76250000D02*
X160730000Y-74520000D01*
X135480000Y-62162000D02*
X135480000Y-63770000D01*
X159299998Y-87300000D02*
X160200000Y-87300000D01*
X160250000Y-87250000D02*
X160200000Y-87300000D01*
X159299998Y-86000000D02*
X159299998Y-84799998D01*
X135480000Y-63770000D02*
X134750000Y-64500000D01*
X154710000Y-74040000D02*
X155500000Y-73250000D01*
X160730000Y-74520000D02*
X160750000Y-74500000D01*
X136042000Y-61600000D02*
X135480000Y-62162000D01*
X153020000Y-74040000D02*
X154710000Y-74040000D01*
%TO.N,Net-(MK1-WS)*%
X133672000Y-62036906D02*
X134709906Y-60999000D01*
X134290000Y-74040000D02*
X133672000Y-73422000D01*
X136354850Y-60999000D02*
X136864000Y-61508150D01*
X133672000Y-73422000D02*
X133672000Y-62036906D01*
X134709906Y-60999000D02*
X136354850Y-60999000D01*
X136864000Y-61508150D02*
X136864000Y-61600000D01*
X136020000Y-74040000D02*
X134290000Y-74040000D01*
%TO.N,Net-(MK1-DATA)*%
X137426000Y-62198999D02*
X137124999Y-62500000D01*
X136020000Y-76580000D02*
X136120058Y-76580000D01*
X137426000Y-61248150D02*
X137426000Y-62198999D01*
X134543806Y-60598000D02*
X136775850Y-60598000D01*
X136775850Y-60598000D02*
X137426000Y-61248150D01*
X137124999Y-62500000D02*
X136864000Y-62500000D01*
X134520000Y-76580000D02*
X133271000Y-75331000D01*
X136020000Y-76580000D02*
X134520000Y-76580000D01*
X133271000Y-61870806D02*
X134543806Y-60598000D01*
X133271000Y-75331000D02*
X133271000Y-61870806D01*
%TO.N,Net-(MK1-BCLK)*%
X136042000Y-64242000D02*
X136042000Y-63400000D01*
X137020000Y-70500000D02*
X137020000Y-65220000D01*
X137020000Y-65220000D02*
X136042000Y-64242000D01*
X136020000Y-71500000D02*
X137020000Y-70500000D01*
%TO.N,Net-(U1-GPIO6_A5_D5_SCL)*%
X156250000Y-81412500D02*
X156250000Y-78750000D01*
X154821000Y-85016500D02*
X154918750Y-84918750D01*
X157250000Y-86000000D02*
X156000000Y-86000000D01*
X137821000Y-87321000D02*
X138541000Y-88041000D01*
X138541000Y-88041000D02*
X154359058Y-88041000D01*
X159460000Y-76788500D02*
X159460000Y-76250000D01*
X154821000Y-87579058D02*
X154821000Y-85016500D01*
X157498500Y-78750000D02*
X159460000Y-76788500D01*
X154918750Y-84918750D02*
X157337500Y-82500000D01*
X136020000Y-84200000D02*
X136020000Y-85439000D01*
X156250000Y-78750000D02*
X157498500Y-78750000D01*
X154359058Y-88041000D02*
X154821000Y-87579058D01*
X137821000Y-85900942D02*
X137821000Y-87321000D01*
X156000000Y-86000000D02*
X154918750Y-84918750D01*
X157337500Y-82500000D02*
X156250000Y-81412500D01*
X137359058Y-85439000D02*
X137821000Y-85900942D01*
X136020000Y-85439000D02*
X137359058Y-85439000D01*
%TO.N,Net-(U1-GPIO4_A3_D3_SDA)*%
X134840000Y-81660000D02*
X136020000Y-81660000D01*
X157500000Y-80000000D02*
X157337500Y-80000000D01*
X134219000Y-87969000D02*
X134219000Y-82281000D01*
X158190000Y-76250000D02*
X158190000Y-75711500D01*
X158151000Y-80813500D02*
X158151000Y-86132800D01*
X157250000Y-86649998D02*
X156317160Y-86649998D01*
X160091200Y-75072700D02*
X160091200Y-77408800D01*
X157633802Y-86649998D02*
X158151000Y-86132800D01*
X160091200Y-75072700D02*
X160091200Y-77427300D01*
X134692000Y-88442000D02*
X134219000Y-87969000D01*
X134219000Y-82281000D02*
X134840000Y-81660000D01*
X156317160Y-86649998D02*
X154525158Y-88442000D01*
X158190000Y-75711500D02*
X158828800Y-75072700D01*
X157250000Y-86649998D02*
X157633802Y-86649998D01*
X160091200Y-77408800D02*
X157500000Y-80000000D01*
X158828800Y-75072700D02*
X160091200Y-75072700D01*
X154525158Y-88442000D02*
X134692000Y-88442000D01*
X158151000Y-80813500D02*
X157337500Y-80000000D01*
%TD*%
%TA.AperFunction,Conductor*%
%TO.N,GND*%
G36*
X156437545Y-64001241D02*
G01*
X156440102Y-64000604D01*
X156470891Y-64011033D01*
X156502058Y-64020185D01*
X156503781Y-64022174D01*
X156506278Y-64023020D01*
X156526544Y-64048444D01*
X156547813Y-64072989D01*
X156548692Y-64076227D01*
X156549830Y-64077655D01*
X156558377Y-64111899D01*
X156560000Y-64127796D01*
X156560001Y-64127799D01*
X156584092Y-64200499D01*
X156615186Y-64294334D01*
X156707096Y-64443345D01*
X156707289Y-64443657D01*
X156763181Y-64499549D01*
X156796666Y-64560872D01*
X156799500Y-64587230D01*
X156799500Y-65422770D01*
X156779815Y-65489809D01*
X156763181Y-65510451D01*
X156707289Y-65566342D01*
X156615187Y-65715663D01*
X156615185Y-65715668D01*
X156615115Y-65715880D01*
X156560001Y-65882203D01*
X156560001Y-65882204D01*
X156560000Y-65882204D01*
X156549500Y-65984983D01*
X156549500Y-67035001D01*
X156549501Y-67035019D01*
X156560000Y-67137796D01*
X156560001Y-67137799D01*
X156615115Y-67304119D01*
X156615186Y-67304334D01*
X156707096Y-67453345D01*
X156707289Y-67453657D01*
X156763181Y-67509549D01*
X156796666Y-67570872D01*
X156799500Y-67597230D01*
X156799500Y-68432770D01*
X156779815Y-68499809D01*
X156763181Y-68520451D01*
X156707289Y-68576342D01*
X156615187Y-68725663D01*
X156615185Y-68725668D01*
X156615115Y-68725880D01*
X156560001Y-68892203D01*
X156560001Y-68892204D01*
X156560000Y-68892204D01*
X156549500Y-68994983D01*
X156549500Y-70045001D01*
X156549501Y-70045019D01*
X156560000Y-70147796D01*
X156560001Y-70147799D01*
X156615185Y-70314331D01*
X156615187Y-70314336D01*
X156650069Y-70370888D01*
X156707096Y-70463345D01*
X156707289Y-70463657D01*
X156763181Y-70519549D01*
X156796666Y-70580872D01*
X156799500Y-70607230D01*
X156799500Y-73187769D01*
X156779815Y-73254808D01*
X156763181Y-73275450D01*
X155220384Y-74818246D01*
X155159061Y-74851731D01*
X155089369Y-74846747D01*
X155033436Y-74804875D01*
X155009019Y-74739411D01*
X155009190Y-74719584D01*
X155019999Y-74598000D01*
X155020000Y-74597998D01*
X155020000Y-73482002D01*
X155019999Y-73481999D01*
X155009391Y-73362674D01*
X155009390Y-73362671D01*
X154953442Y-73167138D01*
X154859278Y-72986870D01*
X154746661Y-72848757D01*
X154719552Y-72784361D01*
X154731561Y-72715531D01*
X154746658Y-72692039D01*
X154859698Y-72553407D01*
X154953909Y-72373049D01*
X155009886Y-72177418D01*
X155020500Y-72058037D01*
X155020499Y-70941964D01*
X155009886Y-70822582D01*
X154953909Y-70626951D01*
X154859698Y-70446593D01*
X154751857Y-70314336D01*
X154731109Y-70288890D01*
X154576978Y-70163214D01*
X154573407Y-70160302D01*
X154393049Y-70066091D01*
X154393048Y-70066090D01*
X154393045Y-70066089D01*
X154275829Y-70032550D01*
X154197418Y-70010114D01*
X154197415Y-70010113D01*
X154197413Y-70010113D01*
X154131102Y-70004217D01*
X154078037Y-69999500D01*
X154078032Y-69999500D01*
X151961971Y-69999500D01*
X151961965Y-69999500D01*
X151961964Y-69999501D01*
X151950316Y-70000536D01*
X151842584Y-70010113D01*
X151646954Y-70066089D01*
X151561379Y-70110790D01*
X151466593Y-70160302D01*
X151466591Y-70160303D01*
X151466590Y-70160304D01*
X151308890Y-70288890D01*
X151184734Y-70441157D01*
X151180302Y-70446593D01*
X151147570Y-70509255D01*
X151086089Y-70626954D01*
X151030114Y-70822583D01*
X151030113Y-70822586D01*
X151019500Y-70941966D01*
X151019500Y-72058028D01*
X151019501Y-72058034D01*
X151030113Y-72177415D01*
X151086089Y-72373045D01*
X151086090Y-72373048D01*
X151086091Y-72373049D01*
X151180302Y-72553407D01*
X151180304Y-72553409D01*
X151293338Y-72692035D01*
X151320447Y-72756432D01*
X151308438Y-72825261D01*
X151293338Y-72848757D01*
X151180721Y-72986870D01*
X151086557Y-73167138D01*
X151030609Y-73362671D01*
X151030608Y-73362674D01*
X151020000Y-73481999D01*
X151020000Y-74598000D01*
X151030608Y-74717325D01*
X151030609Y-74717328D01*
X151086557Y-74912861D01*
X151180721Y-75093129D01*
X151293338Y-75231242D01*
X151320447Y-75295638D01*
X151308438Y-75364468D01*
X151293338Y-75387963D01*
X151180305Y-75526587D01*
X151086089Y-75706954D01*
X151030114Y-75902583D01*
X151030113Y-75902586D01*
X151019500Y-76021966D01*
X151019500Y-77138028D01*
X151019501Y-77138034D01*
X151030113Y-77257415D01*
X151086089Y-77453045D01*
X151086090Y-77453048D01*
X151086091Y-77453049D01*
X151180302Y-77633407D01*
X151228963Y-77693085D01*
X151293015Y-77771639D01*
X151320124Y-77836036D01*
X151308115Y-77904865D01*
X151293015Y-77928361D01*
X151234057Y-78000668D01*
X151180302Y-78066593D01*
X151179983Y-78067204D01*
X151086089Y-78246954D01*
X151030114Y-78442583D01*
X151030113Y-78442586D01*
X151019500Y-78561966D01*
X151019500Y-79678028D01*
X151019501Y-79678034D01*
X151030113Y-79797415D01*
X151086089Y-79993045D01*
X151086090Y-79993048D01*
X151086091Y-79993049D01*
X151180302Y-80173407D01*
X151180304Y-80173409D01*
X151293015Y-80311639D01*
X151320124Y-80376036D01*
X151308115Y-80444865D01*
X151293015Y-80468361D01*
X151180304Y-80606590D01*
X151086089Y-80786954D01*
X151030114Y-80982583D01*
X151030113Y-80982586D01*
X151019500Y-81101966D01*
X151019500Y-82218028D01*
X151019501Y-82218034D01*
X151030113Y-82337415D01*
X151086089Y-82533045D01*
X151086090Y-82533048D01*
X151086091Y-82533049D01*
X151180302Y-82713407D01*
X151180304Y-82713409D01*
X151293015Y-82851639D01*
X151320124Y-82916036D01*
X151308115Y-82984865D01*
X151293015Y-83008361D01*
X151180304Y-83146590D01*
X151086089Y-83326954D01*
X151030114Y-83522583D01*
X151030113Y-83522586D01*
X151019500Y-83641966D01*
X151019500Y-84758028D01*
X151019501Y-84758034D01*
X151030113Y-84877415D01*
X151086089Y-85073045D01*
X151086090Y-85073048D01*
X151086091Y-85073049D01*
X151180302Y-85253407D01*
X151180304Y-85253409D01*
X151293015Y-85391639D01*
X151320124Y-85456036D01*
X151308115Y-85524865D01*
X151293015Y-85548361D01*
X151180304Y-85686590D01*
X151086089Y-85866954D01*
X151030114Y-86062583D01*
X151030113Y-86062586D01*
X151019500Y-86181966D01*
X151019500Y-87298027D01*
X151019501Y-87298036D01*
X151020166Y-87305520D01*
X151006498Y-87374036D01*
X150957954Y-87424288D01*
X150896654Y-87440500D01*
X138841098Y-87440500D01*
X138774059Y-87420815D01*
X138753417Y-87404181D01*
X138457819Y-87108583D01*
X138424334Y-87047260D01*
X138421500Y-87020902D01*
X138421500Y-85990002D01*
X138421501Y-85989989D01*
X138421501Y-85821886D01*
X138421501Y-85821885D01*
X138380577Y-85669158D01*
X138380573Y-85669151D01*
X138301524Y-85532232D01*
X138301518Y-85532224D01*
X138147696Y-85378402D01*
X137979850Y-85210557D01*
X137946366Y-85149235D01*
X137951350Y-85079544D01*
X137952380Y-85076876D01*
X137953906Y-85073053D01*
X137953909Y-85073049D01*
X138009886Y-84877418D01*
X138020500Y-84758037D01*
X138020499Y-83641964D01*
X138009886Y-83522582D01*
X137953909Y-83326951D01*
X137859698Y-83146593D01*
X137746983Y-83008359D01*
X137719875Y-82943965D01*
X137731884Y-82875135D01*
X137746981Y-82851642D01*
X137859698Y-82713407D01*
X137953909Y-82533049D01*
X138009886Y-82337418D01*
X138020500Y-82218037D01*
X138020499Y-81101964D01*
X138009886Y-80982582D01*
X137953909Y-80786951D01*
X137859698Y-80606593D01*
X137746983Y-80468359D01*
X137719875Y-80403965D01*
X137731884Y-80335135D01*
X137746981Y-80311642D01*
X137859698Y-80173407D01*
X137953909Y-79993049D01*
X138009886Y-79797418D01*
X138020500Y-79678037D01*
X138020499Y-78561964D01*
X138009886Y-78442582D01*
X137953909Y-78246951D01*
X137859698Y-78066593D01*
X137746983Y-77928359D01*
X137719875Y-77863965D01*
X137731884Y-77795135D01*
X137746981Y-77771642D01*
X137859698Y-77633407D01*
X137953909Y-77453049D01*
X138009886Y-77257418D01*
X138020500Y-77138037D01*
X138020499Y-76369983D01*
X138369500Y-76369983D01*
X138369500Y-77270001D01*
X138369501Y-77270019D01*
X138380000Y-77372796D01*
X138380001Y-77372799D01*
X138415525Y-77480001D01*
X138435186Y-77539334D01*
X138527287Y-77688655D01*
X138527289Y-77688657D01*
X138530795Y-77693091D01*
X138556934Y-77757887D01*
X138543892Y-77826529D01*
X138530795Y-77846909D01*
X138527289Y-77851342D01*
X138435187Y-78000663D01*
X138435186Y-78000666D01*
X138380001Y-78167203D01*
X138380001Y-78167204D01*
X138380000Y-78167204D01*
X138369500Y-78269983D01*
X138369500Y-79170001D01*
X138369501Y-79170019D01*
X138380000Y-79272796D01*
X138380001Y-79272799D01*
X138435185Y-79439331D01*
X138435186Y-79439334D01*
X138527288Y-79588656D01*
X138651344Y-79712712D01*
X138800666Y-79804814D01*
X138967203Y-79859999D01*
X139069991Y-79870500D01*
X140970008Y-79870499D01*
X141072797Y-79859999D01*
X141239334Y-79804814D01*
X141388656Y-79712712D01*
X141512712Y-79588656D01*
X141604814Y-79439334D01*
X141659999Y-79272797D01*
X141670500Y-79170009D01*
X141670499Y-78269992D01*
X141668146Y-78246954D01*
X141661249Y-78179435D01*
X141660807Y-78175122D01*
X141660283Y-78169983D01*
X144369500Y-78169983D01*
X144369500Y-81270001D01*
X144369501Y-81270018D01*
X144380000Y-81372796D01*
X144380001Y-81372799D01*
X144419353Y-81491554D01*
X144435186Y-81539334D01*
X144527288Y-81688656D01*
X144651344Y-81812712D01*
X144800666Y-81904814D01*
X144967203Y-81959999D01*
X145069991Y-81970500D01*
X148170008Y-81970499D01*
X148272797Y-81959999D01*
X148439334Y-81904814D01*
X148588656Y-81812712D01*
X148712712Y-81688656D01*
X148804814Y-81539334D01*
X148859999Y-81372797D01*
X148870500Y-81270009D01*
X148870499Y-78169992D01*
X148859999Y-78067203D01*
X148804814Y-77900666D01*
X148712712Y-77751344D01*
X148588656Y-77627288D01*
X148495888Y-77570069D01*
X148439336Y-77535187D01*
X148439331Y-77535185D01*
X148437862Y-77534698D01*
X148272797Y-77480001D01*
X148272795Y-77480000D01*
X148170010Y-77469500D01*
X145069998Y-77469500D01*
X145069981Y-77469501D01*
X144967203Y-77480000D01*
X144967200Y-77480001D01*
X144800668Y-77535185D01*
X144800663Y-77535187D01*
X144651342Y-77627289D01*
X144527289Y-77751342D01*
X144435187Y-77900663D01*
X144435185Y-77900668D01*
X144432460Y-77908891D01*
X144380001Y-78067203D01*
X144380001Y-78067204D01*
X144380000Y-78067204D01*
X144369500Y-78169983D01*
X141660283Y-78169983D01*
X141659999Y-78167203D01*
X141604814Y-78000666D01*
X141512712Y-77851344D01*
X141512707Y-77851339D01*
X141509209Y-77846915D01*
X141483066Y-77782121D01*
X141496103Y-77713478D01*
X141509209Y-77693085D01*
X141512703Y-77688664D01*
X141512712Y-77688656D01*
X141604814Y-77539334D01*
X141659999Y-77372797D01*
X141670500Y-77270009D01*
X141670499Y-76369992D01*
X141659999Y-76267203D01*
X141604814Y-76100666D01*
X141512712Y-75951344D01*
X141388656Y-75827288D01*
X141239334Y-75735186D01*
X141072797Y-75680001D01*
X141072795Y-75680000D01*
X140970010Y-75669500D01*
X139069998Y-75669500D01*
X139069981Y-75669501D01*
X138967203Y-75680000D01*
X138967200Y-75680001D01*
X138800668Y-75735185D01*
X138800663Y-75735187D01*
X138651342Y-75827289D01*
X138527289Y-75951342D01*
X138435187Y-76100663D01*
X138435186Y-76100666D01*
X138380001Y-76267203D01*
X138380001Y-76267204D01*
X138380000Y-76267204D01*
X138369500Y-76369983D01*
X138020499Y-76369983D01*
X138020499Y-76021964D01*
X138009886Y-75902582D01*
X137953909Y-75706951D01*
X137859698Y-75526593D01*
X137746983Y-75388359D01*
X137719875Y-75323965D01*
X137731884Y-75255135D01*
X137746981Y-75231642D01*
X137859698Y-75093407D01*
X137953909Y-74913049D01*
X138009886Y-74717418D01*
X138020500Y-74598037D01*
X138020499Y-73481964D01*
X138009886Y-73362582D01*
X137953909Y-73166951D01*
X137861189Y-72989448D01*
X142099500Y-72989448D01*
X142099500Y-73170551D01*
X142127829Y-73349410D01*
X142183787Y-73521636D01*
X142183788Y-73521639D01*
X142266006Y-73682997D01*
X142372441Y-73829494D01*
X142372445Y-73829499D01*
X142500500Y-73957554D01*
X142500505Y-73957558D01*
X142589886Y-74022496D01*
X142647006Y-74063996D01*
X142752484Y-74117740D01*
X142808360Y-74146211D01*
X142808363Y-74146212D01*
X142894476Y-74174191D01*
X142980591Y-74202171D01*
X143053639Y-74213740D01*
X143140678Y-74227527D01*
X143203813Y-74257456D01*
X143240744Y-74316768D01*
X143239746Y-74386631D01*
X143201136Y-74444863D01*
X143140678Y-74472473D01*
X142980589Y-74497829D01*
X142808363Y-74553787D01*
X142808360Y-74553788D01*
X142647002Y-74636006D01*
X142500505Y-74742441D01*
X142500500Y-74742445D01*
X142372445Y-74870500D01*
X142372441Y-74870505D01*
X142266006Y-75017002D01*
X142183788Y-75178360D01*
X142183787Y-75178363D01*
X142127829Y-75350589D01*
X142099500Y-75529448D01*
X142099500Y-75710551D01*
X142127829Y-75889410D01*
X142183787Y-76061636D01*
X142183788Y-76061639D01*
X142266006Y-76222997D01*
X142372441Y-76369494D01*
X142372445Y-76369499D01*
X142500500Y-76497554D01*
X142500505Y-76497558D01*
X142628287Y-76590396D01*
X142647006Y-76603996D01*
X142752484Y-76657740D01*
X142808360Y-76686211D01*
X142808363Y-76686212D01*
X142894476Y-76714191D01*
X142980591Y-76742171D01*
X143063429Y-76755291D01*
X143159449Y-76770500D01*
X143159454Y-76770500D01*
X143340551Y-76770500D01*
X143427259Y-76756765D01*
X143519409Y-76742171D01*
X143691639Y-76686211D01*
X143852994Y-76603996D01*
X143999501Y-76497553D01*
X144127553Y-76369501D01*
X144233996Y-76222994D01*
X144316211Y-76061639D01*
X144372171Y-75889409D01*
X144386422Y-75799425D01*
X144397527Y-75729321D01*
X144427456Y-75666186D01*
X144486768Y-75629255D01*
X144556630Y-75630253D01*
X144614863Y-75668863D01*
X144642473Y-75729321D01*
X144667829Y-75889410D01*
X144723787Y-76061636D01*
X144723788Y-76061639D01*
X144806006Y-76222997D01*
X144912441Y-76369494D01*
X144912445Y-76369499D01*
X145040500Y-76497554D01*
X145040505Y-76497558D01*
X145168287Y-76590396D01*
X145187006Y-76603996D01*
X145292484Y-76657740D01*
X145348360Y-76686211D01*
X145348363Y-76686212D01*
X145434476Y-76714191D01*
X145520591Y-76742171D01*
X145603429Y-76755291D01*
X145699449Y-76770500D01*
X145699454Y-76770500D01*
X145880551Y-76770500D01*
X145967259Y-76756765D01*
X146059409Y-76742171D01*
X146231639Y-76686211D01*
X146392994Y-76603996D01*
X146539501Y-76497553D01*
X146667553Y-76369501D01*
X146773996Y-76222994D01*
X146856211Y-76061639D01*
X146912171Y-75889409D01*
X146926765Y-75797259D01*
X146940500Y-75710551D01*
X146940500Y-75529448D01*
X146915069Y-75368891D01*
X146912171Y-75350591D01*
X146856211Y-75178361D01*
X146856211Y-75178360D01*
X146827740Y-75122484D01*
X146773996Y-75017006D01*
X146712311Y-74932103D01*
X146667558Y-74870505D01*
X146667554Y-74870500D01*
X146539499Y-74742445D01*
X146539494Y-74742441D01*
X146392997Y-74636006D01*
X146392996Y-74636005D01*
X146392994Y-74636004D01*
X146318478Y-74598036D01*
X146231639Y-74553788D01*
X146231636Y-74553787D01*
X146059410Y-74497829D01*
X145899321Y-74472473D01*
X145836186Y-74442544D01*
X145799255Y-74383232D01*
X145800253Y-74313370D01*
X145838863Y-74255137D01*
X145899321Y-74227527D01*
X145969425Y-74216422D01*
X146059409Y-74202171D01*
X146231639Y-74146211D01*
X146392994Y-74063996D01*
X146539501Y-73957553D01*
X146667553Y-73829501D01*
X146773996Y-73682994D01*
X146856211Y-73521639D01*
X146912171Y-73349409D01*
X146929637Y-73239132D01*
X146940500Y-73170551D01*
X146940500Y-72989448D01*
X146914494Y-72825261D01*
X146912171Y-72810591D01*
X146879848Y-72711109D01*
X146856212Y-72638363D01*
X146856211Y-72638360D01*
X146827740Y-72582484D01*
X146773996Y-72477006D01*
X146760396Y-72458287D01*
X146667558Y-72330505D01*
X146667554Y-72330500D01*
X146539499Y-72202445D01*
X146539494Y-72202441D01*
X146392997Y-72096006D01*
X146392996Y-72096005D01*
X146392994Y-72096004D01*
X146318478Y-72058036D01*
X146231639Y-72013788D01*
X146231636Y-72013787D01*
X146059410Y-71957829D01*
X145880551Y-71929500D01*
X145880546Y-71929500D01*
X145699454Y-71929500D01*
X145699449Y-71929500D01*
X145520589Y-71957829D01*
X145348363Y-72013787D01*
X145348360Y-72013788D01*
X145187002Y-72096006D01*
X145040505Y-72202441D01*
X145040500Y-72202445D01*
X144912445Y-72330500D01*
X144912441Y-72330505D01*
X144806006Y-72477002D01*
X144723788Y-72638360D01*
X144723787Y-72638363D01*
X144667829Y-72810589D01*
X144642473Y-72970678D01*
X144612544Y-73033813D01*
X144553232Y-73070744D01*
X144483369Y-73069746D01*
X144425137Y-73031136D01*
X144397527Y-72970678D01*
X144374494Y-72825261D01*
X144372171Y-72810591D01*
X144339848Y-72711109D01*
X144316212Y-72638363D01*
X144316211Y-72638360D01*
X144287740Y-72582484D01*
X144233996Y-72477006D01*
X144220396Y-72458287D01*
X144127558Y-72330505D01*
X144127554Y-72330500D01*
X143999499Y-72202445D01*
X143999494Y-72202441D01*
X143852997Y-72096006D01*
X143852996Y-72096005D01*
X143852994Y-72096004D01*
X143778478Y-72058036D01*
X143691639Y-72013788D01*
X143691636Y-72013787D01*
X143519410Y-71957829D01*
X143340551Y-71929500D01*
X143340546Y-71929500D01*
X143159454Y-71929500D01*
X143159449Y-71929500D01*
X142980589Y-71957829D01*
X142808363Y-72013787D01*
X142808360Y-72013788D01*
X142647002Y-72096006D01*
X142500505Y-72202441D01*
X142500500Y-72202445D01*
X142372445Y-72330500D01*
X142372441Y-72330505D01*
X142266006Y-72477002D01*
X142183788Y-72638360D01*
X142183787Y-72638363D01*
X142127829Y-72810589D01*
X142099500Y-72989448D01*
X137861189Y-72989448D01*
X137859698Y-72986593D01*
X137746983Y-72848359D01*
X137719875Y-72783965D01*
X137731884Y-72715135D01*
X137746981Y-72691642D01*
X137859698Y-72553407D01*
X137953909Y-72373049D01*
X138009886Y-72177418D01*
X138020500Y-72058037D01*
X138020499Y-70941964D01*
X138009886Y-70822582D01*
X137953909Y-70626951D01*
X137866878Y-70460339D01*
X137859699Y-70446595D01*
X137859698Y-70446593D01*
X137829410Y-70409448D01*
X142099500Y-70409448D01*
X142099500Y-70590551D01*
X142127829Y-70769410D01*
X142183787Y-70941636D01*
X142183788Y-70941639D01*
X142266006Y-71102997D01*
X142372441Y-71249494D01*
X142372445Y-71249499D01*
X142500500Y-71377554D01*
X142500505Y-71377558D01*
X142628287Y-71470396D01*
X142647006Y-71483996D01*
X142752484Y-71537740D01*
X142808360Y-71566211D01*
X142808363Y-71566212D01*
X142894476Y-71594191D01*
X142980591Y-71622171D01*
X143063429Y-71635291D01*
X143159449Y-71650500D01*
X143159454Y-71650500D01*
X143340551Y-71650500D01*
X143427259Y-71636765D01*
X143519409Y-71622171D01*
X143691639Y-71566211D01*
X143852994Y-71483996D01*
X143999501Y-71377553D01*
X144127553Y-71249501D01*
X144233996Y-71102994D01*
X144316211Y-70941639D01*
X144372171Y-70769409D01*
X144394734Y-70626954D01*
X144397527Y-70609321D01*
X144427456Y-70546186D01*
X144486768Y-70509255D01*
X144556630Y-70510253D01*
X144614863Y-70548863D01*
X144642473Y-70609321D01*
X144667829Y-70769410D01*
X144723787Y-70941636D01*
X144723788Y-70941639D01*
X144806006Y-71102997D01*
X144912441Y-71249494D01*
X144912445Y-71249499D01*
X145040500Y-71377554D01*
X145040505Y-71377558D01*
X145168287Y-71470396D01*
X145187006Y-71483996D01*
X145292484Y-71537740D01*
X145348360Y-71566211D01*
X145348363Y-71566212D01*
X145434476Y-71594191D01*
X145520591Y-71622171D01*
X145603429Y-71635291D01*
X145699449Y-71650500D01*
X145699454Y-71650500D01*
X145880551Y-71650500D01*
X145967259Y-71636765D01*
X146059409Y-71622171D01*
X146231639Y-71566211D01*
X146392994Y-71483996D01*
X146539501Y-71377553D01*
X146667553Y-71249501D01*
X146773996Y-71102994D01*
X146856211Y-70941639D01*
X146912171Y-70769409D01*
X146934734Y-70626951D01*
X146940500Y-70590551D01*
X146940500Y-70409448D01*
X146921405Y-70288891D01*
X146912171Y-70230591D01*
X146856211Y-70058361D01*
X146856211Y-70058360D01*
X146797196Y-69942539D01*
X146773996Y-69897006D01*
X146758371Y-69875500D01*
X146667558Y-69750505D01*
X146667554Y-69750500D01*
X146539499Y-69622445D01*
X146539494Y-69622441D01*
X146392997Y-69516006D01*
X146392996Y-69516005D01*
X146392994Y-69516004D01*
X146341300Y-69489664D01*
X146231639Y-69433788D01*
X146231636Y-69433787D01*
X146059410Y-69377829D01*
X145880551Y-69349500D01*
X145880546Y-69349500D01*
X145699454Y-69349500D01*
X145699449Y-69349500D01*
X145520589Y-69377829D01*
X145348363Y-69433787D01*
X145348360Y-69433788D01*
X145187002Y-69516006D01*
X145040505Y-69622441D01*
X145040500Y-69622445D01*
X144912445Y-69750500D01*
X144912441Y-69750505D01*
X144806006Y-69897002D01*
X144723788Y-70058360D01*
X144723787Y-70058363D01*
X144667829Y-70230589D01*
X144642473Y-70390678D01*
X144612544Y-70453813D01*
X144553232Y-70490744D01*
X144483369Y-70489746D01*
X144425137Y-70451136D01*
X144397527Y-70390678D01*
X144381405Y-70288891D01*
X144372171Y-70230591D01*
X144316211Y-70058361D01*
X144316211Y-70058360D01*
X144257196Y-69942539D01*
X144233996Y-69897006D01*
X144218371Y-69875500D01*
X144127558Y-69750505D01*
X144127554Y-69750500D01*
X143999499Y-69622445D01*
X143999494Y-69622441D01*
X143852997Y-69516006D01*
X143852996Y-69516005D01*
X143852994Y-69516004D01*
X143801300Y-69489664D01*
X143691639Y-69433788D01*
X143691636Y-69433787D01*
X143519410Y-69377829D01*
X143340551Y-69349500D01*
X143340546Y-69349500D01*
X143159454Y-69349500D01*
X143159449Y-69349500D01*
X142980589Y-69377829D01*
X142808363Y-69433787D01*
X142808360Y-69433788D01*
X142647002Y-69516006D01*
X142500505Y-69622441D01*
X142500500Y-69622445D01*
X142372445Y-69750500D01*
X142372441Y-69750505D01*
X142266006Y-69897002D01*
X142183788Y-70058360D01*
X142183787Y-70058363D01*
X142127829Y-70230589D01*
X142099500Y-70409448D01*
X137829410Y-70409448D01*
X137731109Y-70288891D01*
X137731108Y-70288890D01*
X137731106Y-70288887D01*
X137666139Y-70235913D01*
X137626622Y-70178292D01*
X137620500Y-70139812D01*
X137620500Y-65309059D01*
X137620501Y-65309046D01*
X137620501Y-65140945D01*
X137620501Y-65140943D01*
X137579577Y-64988215D01*
X137550639Y-64938095D01*
X137500520Y-64851284D01*
X137388716Y-64739480D01*
X137388715Y-64739479D01*
X137384385Y-64735149D01*
X137384374Y-64735139D01*
X137050802Y-64401567D01*
X137017317Y-64340244D01*
X137022301Y-64270552D01*
X137064173Y-64214619D01*
X137103881Y-64194812D01*
X137247092Y-64153206D01*
X137384318Y-64072050D01*
X137419548Y-64036820D01*
X137480870Y-64003334D01*
X137507230Y-64000500D01*
X156435019Y-64000500D01*
X156437545Y-64001241D01*
G37*
%TD.AperFunction*%
%TA.AperFunction,Conductor*%
G36*
X159197537Y-83720184D02*
G01*
X159243292Y-83772988D01*
X159254498Y-83824499D01*
X159254498Y-85198200D01*
X159234813Y-85265239D01*
X159182009Y-85310994D01*
X159130498Y-85322200D01*
X158998153Y-85322200D01*
X158938625Y-85328601D01*
X158938618Y-85328603D01*
X158918831Y-85335983D01*
X158849139Y-85340966D01*
X158787817Y-85307479D01*
X158754333Y-85246155D01*
X158751500Y-85219800D01*
X158751500Y-83824499D01*
X158771185Y-83757460D01*
X158823989Y-83711705D01*
X158875495Y-83700499D01*
X159130499Y-83700499D01*
X159197537Y-83720184D01*
G37*
%TD.AperFunction*%
%TA.AperFunction,Conductor*%
G36*
X161342539Y-63094185D02*
G01*
X161388294Y-63146989D01*
X161399500Y-63198500D01*
X161399500Y-74788011D01*
X161379815Y-74855050D01*
X161327011Y-74900805D01*
X161257853Y-74910749D01*
X161232166Y-74904193D01*
X161167576Y-74880102D01*
X161167572Y-74880101D01*
X161108044Y-74873700D01*
X160980000Y-74873700D01*
X160980000Y-76126000D01*
X160977449Y-76134685D01*
X160978738Y-76143647D01*
X160967759Y-76167687D01*
X160960315Y-76193039D01*
X160953474Y-76198966D01*
X160949713Y-76207203D01*
X160927478Y-76221492D01*
X160907511Y-76238794D01*
X160896996Y-76241081D01*
X160890935Y-76244977D01*
X160856000Y-76250000D01*
X160815700Y-76250000D01*
X160748661Y-76230315D01*
X160702906Y-76177511D01*
X160691700Y-76126000D01*
X160691700Y-74993645D01*
X160691700Y-74993643D01*
X160650777Y-74840916D01*
X160620233Y-74788011D01*
X160571724Y-74703990D01*
X160571718Y-74703982D01*
X160459917Y-74592181D01*
X160459909Y-74592175D01*
X160322990Y-74513126D01*
X160322986Y-74513124D01*
X160322984Y-74513123D01*
X160170257Y-74472200D01*
X160170256Y-74472200D01*
X158915470Y-74472200D01*
X158915454Y-74472199D01*
X158907858Y-74472199D01*
X158749743Y-74472199D01*
X158673379Y-74492661D01*
X158597014Y-74513123D01*
X158597009Y-74513126D01*
X158460090Y-74592175D01*
X158460086Y-74592178D01*
X158215381Y-74836882D01*
X158154058Y-74870366D01*
X158127700Y-74873200D01*
X157811930Y-74873200D01*
X157811923Y-74873201D01*
X157752316Y-74879608D01*
X157617471Y-74929902D01*
X157617464Y-74929906D01*
X157502255Y-75016152D01*
X157502252Y-75016155D01*
X157416006Y-75131364D01*
X157416002Y-75131371D01*
X157365708Y-75266217D01*
X157359500Y-75323965D01*
X157359301Y-75325823D01*
X157359300Y-75325835D01*
X157359300Y-77174170D01*
X157359301Y-77174176D01*
X157365708Y-77233783D01*
X157416002Y-77368628D01*
X157416006Y-77368635D01*
X157502252Y-77483844D01*
X157502255Y-77483847D01*
X157623977Y-77574969D01*
X157665848Y-77630903D01*
X157670832Y-77700594D01*
X157637347Y-77761916D01*
X157286084Y-78113181D01*
X157224761Y-78146666D01*
X157198403Y-78149500D01*
X156170943Y-78149500D01*
X156018216Y-78190423D01*
X156018209Y-78190426D01*
X155881290Y-78269475D01*
X155881282Y-78269481D01*
X155769481Y-78381282D01*
X155769475Y-78381290D01*
X155690426Y-78518209D01*
X155690423Y-78518216D01*
X155649500Y-78670943D01*
X155649500Y-81325830D01*
X155649499Y-81325848D01*
X155649499Y-81491554D01*
X155649498Y-81491554D01*
X155690423Y-81644285D01*
X155711332Y-81680500D01*
X155711331Y-81680500D01*
X155711332Y-81680501D01*
X155769475Y-81781209D01*
X155769481Y-81781217D01*
X155888349Y-81900085D01*
X155888355Y-81900090D01*
X156288181Y-82299916D01*
X156302884Y-82326843D01*
X156319477Y-82352662D01*
X156320368Y-82358862D01*
X156321666Y-82361239D01*
X156324500Y-82387597D01*
X156324500Y-82612402D01*
X156304815Y-82679441D01*
X156288181Y-82700083D01*
X155232180Y-83756084D01*
X155170857Y-83789569D01*
X155101165Y-83784585D01*
X155045232Y-83742713D01*
X155020815Y-83677249D01*
X155020499Y-83668403D01*
X155020499Y-83641971D01*
X155020499Y-83641964D01*
X155009886Y-83522582D01*
X154953909Y-83326951D01*
X154859698Y-83146593D01*
X154746983Y-83008359D01*
X154719875Y-82943965D01*
X154731884Y-82875135D01*
X154746981Y-82851642D01*
X154859698Y-82713407D01*
X154953909Y-82533049D01*
X155009886Y-82337418D01*
X155020500Y-82218037D01*
X155020499Y-81101964D01*
X155009886Y-80982582D01*
X154953909Y-80786951D01*
X154859698Y-80606593D01*
X154746983Y-80468359D01*
X154719875Y-80403965D01*
X154731884Y-80335135D01*
X154746981Y-80311642D01*
X154859698Y-80173407D01*
X154953909Y-79993049D01*
X155009886Y-79797418D01*
X155020500Y-79678037D01*
X155020499Y-78561964D01*
X155009886Y-78442582D01*
X154953909Y-78246951D01*
X154859698Y-78066593D01*
X154746983Y-77928359D01*
X154719875Y-77863965D01*
X154731884Y-77795135D01*
X154746981Y-77771642D01*
X154859698Y-77633407D01*
X154953909Y-77453049D01*
X155009886Y-77257418D01*
X155016235Y-77185999D01*
X155041779Y-77120967D01*
X155052059Y-77109307D01*
X158132951Y-74028416D01*
X158136904Y-74022500D01*
X158215084Y-73905495D01*
X158271658Y-73768913D01*
X158300500Y-73623918D01*
X158300500Y-70607230D01*
X158308506Y-70579962D01*
X158313487Y-70551985D01*
X158318953Y-70544385D01*
X158320185Y-70540191D01*
X158333548Y-70522947D01*
X158335153Y-70521214D01*
X158392712Y-70463656D01*
X158401112Y-70450036D01*
X158409341Y-70441157D01*
X158429361Y-70429214D01*
X158446694Y-70413623D01*
X158458806Y-70411650D01*
X158469346Y-70405364D01*
X158492645Y-70406141D01*
X158515656Y-70402395D01*
X158526911Y-70407284D01*
X158539177Y-70407694D01*
X158558357Y-70420945D01*
X158579740Y-70430234D01*
X158591581Y-70443897D01*
X158596662Y-70447408D01*
X158598552Y-70451942D01*
X158605829Y-70460339D01*
X158607681Y-70463341D01*
X158607683Y-70463344D01*
X158731654Y-70587315D01*
X158880875Y-70679356D01*
X158880880Y-70679358D01*
X159047302Y-70734505D01*
X159047309Y-70734506D01*
X159150019Y-70744999D01*
X159700000Y-70744999D01*
X159749972Y-70744999D01*
X159749986Y-70744998D01*
X159852697Y-70734505D01*
X160019119Y-70679358D01*
X160019124Y-70679356D01*
X160168345Y-70587315D01*
X160292315Y-70463345D01*
X160384356Y-70314124D01*
X160384358Y-70314119D01*
X160439505Y-70147697D01*
X160439506Y-70147690D01*
X160449999Y-70044986D01*
X160450000Y-70044973D01*
X160450000Y-69770000D01*
X159700000Y-69770000D01*
X159700000Y-70744999D01*
X159150019Y-70744999D01*
X159199999Y-70744998D01*
X159200000Y-70744998D01*
X159200000Y-69270000D01*
X159700000Y-69270000D01*
X160449999Y-69270000D01*
X160449999Y-68995028D01*
X160449998Y-68995013D01*
X160439505Y-68892302D01*
X160384358Y-68725880D01*
X160384356Y-68725875D01*
X160292315Y-68576654D01*
X160168345Y-68452684D01*
X160019124Y-68360643D01*
X160019119Y-68360641D01*
X159852697Y-68305494D01*
X159852690Y-68305493D01*
X159749986Y-68295000D01*
X159700000Y-68295000D01*
X159700000Y-69270000D01*
X159200000Y-69270000D01*
X159200000Y-68295000D01*
X159199999Y-68294999D01*
X159150029Y-68295000D01*
X159150011Y-68295001D01*
X159047302Y-68305494D01*
X158880880Y-68360641D01*
X158880875Y-68360643D01*
X158731654Y-68452684D01*
X158607683Y-68576655D01*
X158607679Y-68576660D01*
X158605826Y-68579665D01*
X158604018Y-68581290D01*
X158603202Y-68582323D01*
X158603025Y-68582183D01*
X158553874Y-68626385D01*
X158484911Y-68637601D01*
X158420831Y-68609752D01*
X158409341Y-68598843D01*
X158401112Y-68589963D01*
X158392712Y-68576344D01*
X158335140Y-68518772D01*
X158333548Y-68517054D01*
X158318985Y-68487791D01*
X158303334Y-68459128D01*
X158302951Y-68455572D01*
X158302419Y-68454502D01*
X158302630Y-68452580D01*
X158300500Y-68432770D01*
X158300500Y-67597230D01*
X158320185Y-67530191D01*
X158336819Y-67509549D01*
X158392712Y-67453656D01*
X158394752Y-67450347D01*
X158396745Y-67448555D01*
X158397193Y-67447989D01*
X158397289Y-67448065D01*
X158446694Y-67403623D01*
X158515656Y-67392395D01*
X158579740Y-67420234D01*
X158605829Y-67450339D01*
X158607681Y-67453341D01*
X158607683Y-67453344D01*
X158731654Y-67577315D01*
X158880875Y-67669356D01*
X158880880Y-67669358D01*
X159047302Y-67724505D01*
X159047309Y-67724506D01*
X159150019Y-67734999D01*
X159700000Y-67734999D01*
X159749972Y-67734999D01*
X159749986Y-67734998D01*
X159852697Y-67724505D01*
X160019119Y-67669358D01*
X160019124Y-67669356D01*
X160168345Y-67577315D01*
X160292315Y-67453345D01*
X160384356Y-67304124D01*
X160384358Y-67304119D01*
X160439505Y-67137697D01*
X160439506Y-67137690D01*
X160449999Y-67034986D01*
X160450000Y-67034973D01*
X160450000Y-66760000D01*
X159700000Y-66760000D01*
X159700000Y-67734999D01*
X159150019Y-67734999D01*
X159199999Y-67734998D01*
X159200000Y-67734998D01*
X159200000Y-66260000D01*
X159700000Y-66260000D01*
X160449999Y-66260000D01*
X160449999Y-65985028D01*
X160449998Y-65985013D01*
X160439505Y-65882302D01*
X160384358Y-65715880D01*
X160384356Y-65715875D01*
X160292315Y-65566654D01*
X160168345Y-65442684D01*
X160019124Y-65350643D01*
X160019119Y-65350641D01*
X159852697Y-65295494D01*
X159852690Y-65295493D01*
X159749986Y-65285000D01*
X159700000Y-65285000D01*
X159700000Y-66260000D01*
X159200000Y-66260000D01*
X159200000Y-65285000D01*
X159199999Y-65284999D01*
X159150029Y-65285000D01*
X159150011Y-65285001D01*
X159047302Y-65295494D01*
X158880880Y-65350641D01*
X158880875Y-65350643D01*
X158731654Y-65442684D01*
X158607683Y-65566655D01*
X158607679Y-65566660D01*
X158605826Y-65569665D01*
X158604018Y-65571290D01*
X158603202Y-65572323D01*
X158603025Y-65572183D01*
X158553874Y-65616385D01*
X158484911Y-65627601D01*
X158420831Y-65599752D01*
X158409341Y-65588843D01*
X158401112Y-65579963D01*
X158392712Y-65566344D01*
X158335140Y-65508772D01*
X158333548Y-65507054D01*
X158318985Y-65477791D01*
X158303334Y-65449128D01*
X158302951Y-65445572D01*
X158302419Y-65444502D01*
X158302630Y-65442580D01*
X158300500Y-65422770D01*
X158300500Y-64587230D01*
X158320185Y-64520191D01*
X158336819Y-64499549D01*
X158362583Y-64473785D01*
X158392712Y-64443656D01*
X158394752Y-64440347D01*
X158396745Y-64438555D01*
X158397193Y-64437989D01*
X158397289Y-64438065D01*
X158446694Y-64393623D01*
X158515656Y-64382395D01*
X158579740Y-64410234D01*
X158605829Y-64440339D01*
X158607681Y-64443341D01*
X158607683Y-64443344D01*
X158731654Y-64567315D01*
X158880875Y-64659356D01*
X158880880Y-64659358D01*
X159047302Y-64714505D01*
X159047309Y-64714506D01*
X159150019Y-64724999D01*
X159700000Y-64724999D01*
X159749972Y-64724999D01*
X159749986Y-64724998D01*
X159852697Y-64714505D01*
X160019119Y-64659358D01*
X160019124Y-64659356D01*
X160168345Y-64567315D01*
X160292315Y-64443345D01*
X160384356Y-64294124D01*
X160384358Y-64294119D01*
X160439505Y-64127697D01*
X160439506Y-64127690D01*
X160449999Y-64024986D01*
X160450000Y-64024973D01*
X160450000Y-63750000D01*
X159700000Y-63750000D01*
X159700000Y-64724999D01*
X159150019Y-64724999D01*
X159199999Y-64724998D01*
X159200000Y-64724998D01*
X159200000Y-63624000D01*
X159219685Y-63556961D01*
X159272489Y-63511206D01*
X159324000Y-63500000D01*
X159450000Y-63500000D01*
X159450000Y-63374000D01*
X159469685Y-63306961D01*
X159522489Y-63261206D01*
X159574000Y-63250000D01*
X160449999Y-63250000D01*
X160449999Y-63198500D01*
X160469684Y-63131461D01*
X160522488Y-63085706D01*
X160573999Y-63074500D01*
X161275500Y-63074500D01*
X161342539Y-63094185D01*
G37*
%TD.AperFunction*%
%TA.AperFunction,Conductor*%
G36*
X135309826Y-63795886D02*
G01*
X135322639Y-63816077D01*
X135323823Y-63815377D01*
X135327793Y-63822091D01*
X135327794Y-63822092D01*
X135408950Y-63959318D01*
X135408953Y-63959321D01*
X135413733Y-63965484D01*
X135411531Y-63967191D01*
X135419877Y-63982465D01*
X135436477Y-64008295D01*
X135437364Y-64014468D01*
X135438659Y-64016837D01*
X135441500Y-64043230D01*
X135441500Y-64155330D01*
X135441499Y-64155348D01*
X135441499Y-64321054D01*
X135441498Y-64321054D01*
X135441499Y-64321057D01*
X135482423Y-64473785D01*
X135509216Y-64520191D01*
X135511358Y-64523900D01*
X135511359Y-64523904D01*
X135511360Y-64523904D01*
X135561479Y-64610714D01*
X135561481Y-64610717D01*
X135680349Y-64729585D01*
X135680355Y-64729590D01*
X136383181Y-65432416D01*
X136416666Y-65493739D01*
X136419500Y-65520097D01*
X136419500Y-69875500D01*
X136399815Y-69942539D01*
X136347011Y-69988294D01*
X136295500Y-69999500D01*
X134961971Y-69999500D01*
X134961965Y-69999500D01*
X134961964Y-69999501D01*
X134950316Y-70000536D01*
X134842584Y-70010113D01*
X134646954Y-70066089D01*
X134561379Y-70110790D01*
X134466593Y-70160302D01*
X134466591Y-70160302D01*
X134466586Y-70160306D01*
X134464731Y-70161529D01*
X134463558Y-70161887D01*
X134461020Y-70163214D01*
X134460772Y-70162740D01*
X134397921Y-70181981D01*
X134330660Y-70163066D01*
X134284303Y-70110790D01*
X134272500Y-70057989D01*
X134272500Y-63888037D01*
X134292185Y-63820998D01*
X134344989Y-63775243D01*
X134414147Y-63765299D01*
X134432498Y-63769377D01*
X134454630Y-63776091D01*
X134611491Y-63807293D01*
X134611503Y-63807295D01*
X134710030Y-63817000D01*
X134869970Y-63817000D01*
X134968496Y-63807295D01*
X134968508Y-63807293D01*
X135125375Y-63776090D01*
X135180846Y-63759263D01*
X135250713Y-63758639D01*
X135309826Y-63795886D01*
G37*
%TD.AperFunction*%
%TA.AperFunction,Conductor*%
G36*
X162754418Y-58750816D02*
G01*
X162954561Y-58765130D01*
X162972063Y-58767647D01*
X163163797Y-58809355D01*
X163180755Y-58814334D01*
X163364609Y-58882909D01*
X163380701Y-58890259D01*
X163552904Y-58984288D01*
X163567784Y-58993849D01*
X163724867Y-59111441D01*
X163738237Y-59123027D01*
X163876972Y-59261762D01*
X163888558Y-59275132D01*
X164006146Y-59432210D01*
X164015711Y-59447095D01*
X164109740Y-59619298D01*
X164117090Y-59635390D01*
X164185662Y-59819236D01*
X164190646Y-59836212D01*
X164232351Y-60027931D01*
X164234869Y-60045442D01*
X164240022Y-60117480D01*
X164248018Y-60229286D01*
X164249184Y-60245580D01*
X164249500Y-60254427D01*
X164249500Y-89745572D01*
X164249184Y-89754419D01*
X164234869Y-89954557D01*
X164232351Y-89972068D01*
X164190646Y-90163787D01*
X164185662Y-90180763D01*
X164117090Y-90364609D01*
X164109740Y-90380701D01*
X164015711Y-90552904D01*
X164006146Y-90567789D01*
X163888558Y-90724867D01*
X163876972Y-90738237D01*
X163738237Y-90876972D01*
X163724867Y-90888558D01*
X163567789Y-91006146D01*
X163552904Y-91015711D01*
X163380701Y-91109740D01*
X163364609Y-91117090D01*
X163180763Y-91185662D01*
X163163787Y-91190646D01*
X162972068Y-91232351D01*
X162954557Y-91234869D01*
X162773779Y-91247799D01*
X162754417Y-91249184D01*
X162745572Y-91249500D01*
X133504428Y-91249500D01*
X133495582Y-91249184D01*
X133473622Y-91247613D01*
X133295442Y-91234869D01*
X133277931Y-91232351D01*
X133086212Y-91190646D01*
X133069236Y-91185662D01*
X132885390Y-91117090D01*
X132869298Y-91109740D01*
X132697095Y-91015711D01*
X132682210Y-91006146D01*
X132525132Y-90888558D01*
X132511762Y-90876972D01*
X132373027Y-90738237D01*
X132361441Y-90724867D01*
X132243849Y-90567784D01*
X132234288Y-90552904D01*
X132140259Y-90380701D01*
X132132909Y-90364609D01*
X132072091Y-90201551D01*
X132064334Y-90180755D01*
X132059355Y-90163797D01*
X132017647Y-89972063D01*
X132015130Y-89954556D01*
X132000816Y-89754418D01*
X132000500Y-89745572D01*
X132000500Y-75410054D01*
X132670498Y-75410054D01*
X132711423Y-75562785D01*
X132740358Y-75612900D01*
X132740359Y-75612904D01*
X132740360Y-75612904D01*
X132790479Y-75699714D01*
X132790481Y-75699717D01*
X132909349Y-75818585D01*
X132909355Y-75818590D01*
X133983181Y-76892417D01*
X134016666Y-76953740D01*
X134019500Y-76980097D01*
X134019500Y-77138027D01*
X134019501Y-77138035D01*
X134030113Y-77257415D01*
X134086089Y-77453045D01*
X134086090Y-77453048D01*
X134086091Y-77453049D01*
X134180302Y-77633407D01*
X134228963Y-77693085D01*
X134293015Y-77771639D01*
X134320124Y-77836036D01*
X134308115Y-77904865D01*
X134293015Y-77928361D01*
X134234057Y-78000668D01*
X134180302Y-78066593D01*
X134179983Y-78067204D01*
X134086089Y-78246954D01*
X134030114Y-78442583D01*
X134030113Y-78442586D01*
X134019500Y-78561966D01*
X134019500Y-79678028D01*
X134019501Y-79678034D01*
X134030113Y-79797415D01*
X134086089Y-79993045D01*
X134086090Y-79993048D01*
X134086091Y-79993049D01*
X134180302Y-80173407D01*
X134180304Y-80173409D01*
X134293015Y-80311639D01*
X134320124Y-80376036D01*
X134308115Y-80444865D01*
X134293015Y-80468361D01*
X134180304Y-80606590D01*
X134086089Y-80786954D01*
X134030114Y-80982583D01*
X134030113Y-80982586D01*
X134019500Y-81101966D01*
X134019500Y-81579902D01*
X133999815Y-81646941D01*
X133983181Y-81667583D01*
X133738481Y-81912282D01*
X133738479Y-81912284D01*
X133714215Y-81954312D01*
X133703959Y-81972077D01*
X133659423Y-82049215D01*
X133618499Y-82201943D01*
X133618499Y-82201945D01*
X133618499Y-82370046D01*
X133618500Y-82370059D01*
X133618500Y-87882330D01*
X133618499Y-87882348D01*
X133618499Y-88048054D01*
X133618498Y-88048054D01*
X133659424Y-88200789D01*
X133659425Y-88200790D01*
X133682351Y-88240498D01*
X133682352Y-88240500D01*
X133738475Y-88337709D01*
X133738481Y-88337717D01*
X133857349Y-88456585D01*
X133857355Y-88456590D01*
X134207139Y-88806374D01*
X134207149Y-88806385D01*
X134211479Y-88810715D01*
X134211480Y-88810716D01*
X134323284Y-88922520D01*
X134410095Y-88972639D01*
X134410097Y-88972641D01*
X134448151Y-88994611D01*
X134460215Y-89001577D01*
X134612943Y-89042501D01*
X134612946Y-89042501D01*
X134778653Y-89042501D01*
X134778669Y-89042500D01*
X154438489Y-89042500D01*
X154438505Y-89042501D01*
X154446101Y-89042501D01*
X154604212Y-89042501D01*
X154604215Y-89042501D01*
X154756943Y-89001577D01*
X154807062Y-88972639D01*
X154893874Y-88922520D01*
X155005678Y-88810716D01*
X155005678Y-88810714D01*
X155015886Y-88800507D01*
X155015887Y-88800504D01*
X156292928Y-87523464D01*
X156297769Y-87520821D01*
X156300825Y-87516221D01*
X156328104Y-87504256D01*
X156354247Y-87489982D01*
X156359754Y-87490375D01*
X156364812Y-87488158D01*
X156394224Y-87492840D01*
X156423939Y-87494966D01*
X156428360Y-87498276D01*
X156433812Y-87499144D01*
X156456024Y-87518985D01*
X156479872Y-87536838D01*
X156482890Y-87542984D01*
X156485920Y-87545690D01*
X156495309Y-87568266D01*
X156500096Y-87578012D01*
X156501780Y-87584085D01*
X156501909Y-87585283D01*
X156502701Y-87587408D01*
X156504135Y-87592577D01*
X156503685Y-87622367D01*
X156505808Y-87652082D01*
X156503779Y-87658993D01*
X156503088Y-87661914D01*
X156503081Y-87662439D01*
X156502900Y-87662710D01*
X156502401Y-87664822D01*
X156496000Y-87724353D01*
X156496000Y-87772198D01*
X156529112Y-87772198D01*
X156596151Y-87791883D01*
X156609104Y-87801449D01*
X156619905Y-87810567D01*
X156638454Y-87835346D01*
X156733780Y-87906707D01*
X156736554Y-87909049D01*
X156753898Y-87935290D01*
X156772744Y-87960466D01*
X156773011Y-87964207D01*
X156775080Y-87967337D01*
X156775484Y-87998781D01*
X156777728Y-88030157D01*
X156775929Y-88033450D01*
X156775978Y-88037201D01*
X156759314Y-88063877D01*
X156744242Y-88091480D01*
X156740949Y-88093277D01*
X156738962Y-88096460D01*
X156710523Y-88109891D01*
X156682919Y-88124965D01*
X156677339Y-88125564D01*
X156675785Y-88126299D01*
X156673403Y-88125987D01*
X156656562Y-88127798D01*
X156496000Y-88127798D01*
X156496000Y-88175642D01*
X156502401Y-88235170D01*
X156502403Y-88235177D01*
X156552645Y-88369884D01*
X156552649Y-88369891D01*
X156638809Y-88484985D01*
X156638812Y-88484988D01*
X156753906Y-88571148D01*
X156753913Y-88571152D01*
X156888620Y-88621394D01*
X156888627Y-88621396D01*
X156948155Y-88627797D01*
X156948172Y-88627798D01*
X157072200Y-88627798D01*
X157072200Y-88102299D01*
X157074750Y-88093613D01*
X157073462Y-88084652D01*
X157084440Y-88060611D01*
X157091885Y-88035260D01*
X157098725Y-88029332D01*
X157102487Y-88021096D01*
X157124721Y-88006806D01*
X157144689Y-87989505D01*
X157155203Y-87987217D01*
X157161265Y-87983322D01*
X157196195Y-87978299D01*
X157303801Y-87978299D01*
X157370839Y-87997984D01*
X157416594Y-88050788D01*
X157427800Y-88102299D01*
X157427800Y-88627798D01*
X157551828Y-88627798D01*
X157551844Y-88627797D01*
X157611372Y-88621396D01*
X157611379Y-88621394D01*
X157746086Y-88571152D01*
X157746093Y-88571148D01*
X157861187Y-88484988D01*
X157861190Y-88484985D01*
X157947350Y-88369891D01*
X157947354Y-88369884D01*
X157997596Y-88235178D01*
X158004309Y-88172743D01*
X158031047Y-88108192D01*
X158088440Y-88068344D01*
X158158265Y-88065850D01*
X158215280Y-88098317D01*
X158431335Y-88314372D01*
X158431345Y-88314383D01*
X158435675Y-88318713D01*
X158435676Y-88318714D01*
X158547480Y-88430518D01*
X158634291Y-88480637D01*
X158684411Y-88509575D01*
X158727343Y-88521078D01*
X158736151Y-88524979D01*
X158742816Y-88530622D01*
X158760248Y-88539090D01*
X158803667Y-88571594D01*
X158803668Y-88571594D01*
X158803668Y-88571595D01*
X158878153Y-88599375D01*
X158938515Y-88621889D01*
X158998125Y-88628298D01*
X159601870Y-88628297D01*
X159661481Y-88621889D01*
X159796329Y-88571594D01*
X159911544Y-88485344D01*
X159997794Y-88370129D01*
X160048089Y-88235281D01*
X160054498Y-88175671D01*
X160054497Y-87724326D01*
X160048089Y-87664715D01*
X160048088Y-87664713D01*
X160048088Y-87664710D01*
X160046306Y-87657167D01*
X160048391Y-87656674D01*
X160044184Y-87597940D01*
X160046210Y-87591039D01*
X160047596Y-87585175D01*
X160053997Y-87525644D01*
X160053998Y-87525627D01*
X160053998Y-87477800D01*
X160020886Y-87477800D01*
X159989404Y-87468555D01*
X159957608Y-87460439D01*
X159955590Y-87458627D01*
X159953847Y-87458115D01*
X159930128Y-87438292D01*
X159925599Y-87433427D01*
X159911544Y-87414652D01*
X159900247Y-87406195D01*
X159892684Y-87398071D01*
X159881813Y-87376352D01*
X159867259Y-87356909D01*
X159866455Y-87345669D01*
X159861411Y-87335591D01*
X159864008Y-87311440D01*
X159862277Y-87287218D01*
X159867677Y-87277327D01*
X159868883Y-87266122D01*
X159884122Y-87247212D01*
X159895763Y-87225895D01*
X159910278Y-87214757D01*
X159912726Y-87211720D01*
X159915393Y-87210832D01*
X159921431Y-87206199D01*
X159965704Y-87180637D01*
X160052516Y-87130518D01*
X160164320Y-87018714D01*
X160164320Y-87018713D01*
X160181760Y-87001273D01*
X160181762Y-87001270D01*
X160335515Y-86847519D01*
X160335515Y-86847518D01*
X160335518Y-86847516D01*
X160414575Y-86710584D01*
X160455499Y-86557857D01*
X160455499Y-86399742D01*
X160455499Y-86392147D01*
X160455498Y-86392129D01*
X160455498Y-83113443D01*
X160455498Y-83113441D01*
X160414575Y-82960714D01*
X160414575Y-82960713D01*
X160414575Y-82960712D01*
X160385637Y-82910593D01*
X160385635Y-82910590D01*
X160335518Y-82823782D01*
X160223714Y-82711978D01*
X160223713Y-82711977D01*
X160219383Y-82707647D01*
X160219372Y-82707637D01*
X160211818Y-82700083D01*
X160178333Y-82638760D01*
X160175499Y-82612402D01*
X160175499Y-81999998D01*
X160175498Y-81999981D01*
X160164999Y-81897203D01*
X160164998Y-81897200D01*
X160137001Y-81812712D01*
X160109814Y-81730666D01*
X160017712Y-81581344D01*
X159893656Y-81457288D01*
X159893655Y-81457287D01*
X159821902Y-81413029D01*
X159815078Y-81405442D01*
X159805797Y-81401204D01*
X159792109Y-81379905D01*
X159775178Y-81361081D01*
X159772533Y-81349444D01*
X159768023Y-81342426D01*
X159763000Y-81307491D01*
X159763000Y-81192507D01*
X159782685Y-81125468D01*
X159821903Y-81086968D01*
X159893656Y-81042712D01*
X160017712Y-80918656D01*
X160109814Y-80769334D01*
X160164999Y-80602797D01*
X160175500Y-80500009D01*
X160175499Y-79887595D01*
X160195183Y-79820557D01*
X160211813Y-79799920D01*
X162354830Y-77656903D01*
X162416151Y-77623420D01*
X162429243Y-77621298D01*
X162437683Y-77620391D01*
X162572531Y-77570096D01*
X162687746Y-77483846D01*
X162773996Y-77368631D01*
X162824291Y-77233783D01*
X162830700Y-77174173D01*
X162830699Y-75325828D01*
X162824291Y-75266217D01*
X162818967Y-75251943D01*
X162773997Y-75131371D01*
X162773993Y-75131364D01*
X162687748Y-75016157D01*
X162687746Y-75016154D01*
X162687744Y-75016152D01*
X162687742Y-75016150D01*
X162650188Y-74988037D01*
X162608317Y-74932103D01*
X162600500Y-74888771D01*
X162600500Y-62839059D01*
X162600501Y-62839046D01*
X162600501Y-62670945D01*
X162600501Y-62670943D01*
X162559577Y-62518215D01*
X162530639Y-62468095D01*
X162480520Y-62381284D01*
X162368716Y-62269480D01*
X162368715Y-62269479D01*
X162364385Y-62265149D01*
X162364374Y-62265139D01*
X162211590Y-62112355D01*
X162211588Y-62112352D01*
X162092717Y-61993481D01*
X162092709Y-61993475D01*
X162000819Y-61940423D01*
X162000817Y-61940422D01*
X161955790Y-61914425D01*
X161955789Y-61914424D01*
X161943263Y-61911067D01*
X161803057Y-61873499D01*
X161644943Y-61873499D01*
X161637347Y-61873499D01*
X161637331Y-61873500D01*
X158655057Y-61873500D01*
X158496943Y-61873500D01*
X158344215Y-61914423D01*
X158344214Y-61914423D01*
X158344212Y-61914424D01*
X158344209Y-61914425D01*
X158299183Y-61940422D01*
X158299181Y-61940423D01*
X158207290Y-61993475D01*
X158207282Y-61993481D01*
X158095480Y-62105283D01*
X158095480Y-62105284D01*
X158095478Y-62105286D01*
X158008078Y-62192686D01*
X157960861Y-62239903D01*
X157899538Y-62273387D01*
X157860582Y-62275579D01*
X157850028Y-62274501D01*
X157850012Y-62274500D01*
X157850009Y-62274500D01*
X157850004Y-62274500D01*
X157249998Y-62274500D01*
X157249980Y-62274501D01*
X157147203Y-62285000D01*
X157147200Y-62285001D01*
X156980668Y-62340185D01*
X156980663Y-62340187D01*
X156831342Y-62432289D01*
X156707289Y-62556342D01*
X156615185Y-62705667D01*
X156612256Y-62714507D01*
X156572482Y-62771951D01*
X156507965Y-62798772D01*
X156494551Y-62799500D01*
X137974097Y-62799500D01*
X137907058Y-62779815D01*
X137861303Y-62727011D01*
X137851359Y-62657853D01*
X137880384Y-62594297D01*
X137886416Y-62587819D01*
X137888020Y-62586214D01*
X137906520Y-62567715D01*
X137985577Y-62430783D01*
X138026501Y-62278056D01*
X138026501Y-62119941D01*
X138026501Y-62112346D01*
X138026500Y-62112328D01*
X138026500Y-61337209D01*
X138026501Y-61337196D01*
X138026501Y-61169095D01*
X138026501Y-61169093D01*
X137985577Y-61016365D01*
X137934530Y-60927950D01*
X137906520Y-60879434D01*
X137794716Y-60767630D01*
X137794715Y-60767629D01*
X137790385Y-60763299D01*
X137790374Y-60763289D01*
X137263440Y-60236355D01*
X137263438Y-60236352D01*
X137144567Y-60117481D01*
X137144566Y-60117480D01*
X137057754Y-60067360D01*
X137057754Y-60067359D01*
X137057750Y-60067358D01*
X137007635Y-60038423D01*
X136854907Y-59997499D01*
X136696793Y-59997499D01*
X136689197Y-59997499D01*
X136689181Y-59997500D01*
X134630476Y-59997500D01*
X134630460Y-59997499D01*
X134622864Y-59997499D01*
X134464749Y-59997499D01*
X134388385Y-60017961D01*
X134312020Y-60038423D01*
X134312015Y-60038426D01*
X134175096Y-60117475D01*
X134175088Y-60117481D01*
X132790481Y-61502088D01*
X132790479Y-61502091D01*
X132757869Y-61558575D01*
X132757868Y-61558577D01*
X132711423Y-61639020D01*
X132711423Y-61639021D01*
X132670499Y-61791749D01*
X132670499Y-61949863D01*
X132670499Y-61949865D01*
X132670500Y-61959859D01*
X132670500Y-75244330D01*
X132670499Y-75244348D01*
X132670499Y-75410054D01*
X132670498Y-75410054D01*
X132000500Y-75410054D01*
X132000500Y-60254427D01*
X132000816Y-60245581D01*
X132001476Y-60236352D01*
X132015131Y-60045434D01*
X132017646Y-60027938D01*
X132059356Y-59836199D01*
X132064333Y-59819248D01*
X132132911Y-59635385D01*
X132140259Y-59619298D01*
X132202815Y-59504734D01*
X132234291Y-59447089D01*
X132243845Y-59432221D01*
X132361448Y-59275123D01*
X132373020Y-59261769D01*
X132511769Y-59123020D01*
X132525123Y-59111448D01*
X132682221Y-58993845D01*
X132697089Y-58984291D01*
X132869298Y-58890258D01*
X132885385Y-58882911D01*
X133069248Y-58814333D01*
X133086199Y-58809356D01*
X133277938Y-58767646D01*
X133295436Y-58765130D01*
X133495582Y-58750816D01*
X133504428Y-58750500D01*
X133565892Y-58750500D01*
X162684108Y-58750500D01*
X162745572Y-58750500D01*
X162754418Y-58750816D01*
G37*
%TD.AperFunction*%
%TD*%
M02*
