%TF.GenerationSoftware,KiCad,Pcbnew,9.0.6*%
%TF.CreationDate,2026-02-02T13:39:19-08:00*%
%TF.ProjectId,sensor_unit,73656e73-6f72-45f7-956e-69742e6b6963,rev?*%
%TF.SameCoordinates,Original*%
%TF.FileFunction,Copper,L2,Bot*%
%TF.FilePolarity,Positive*%
%FSLAX46Y46*%
G04 Gerber Fmt 4.6, Leading zero omitted, Abs format (unit mm)*
G04 Created by KiCad (PCBNEW 9.0.6) date 2026-02-02 13:39:19*
%MOMM*%
%LPD*%
G01*
G04 APERTURE LIST*
%TA.AperFunction,ViaPad*%
%ADD10C,0.600000*%
%TD*%
%TA.AperFunction,Conductor*%
%ADD11C,0.200000*%
%TD*%
G04 APERTURE END LIST*
D10*
%TO.N,GND*%
X156250000Y-72500000D03*
X145250000Y-65250000D03*
X155000000Y-61250000D03*
X159000000Y-84500000D03*
X162250000Y-79000000D03*
X135500000Y-65500000D03*
X138750000Y-65500000D03*
X156250000Y-77250000D03*
X161500000Y-84500000D03*
X145250000Y-61250000D03*
%TD*%
D11*
%TO.N,GND*%
X158000000Y-79000000D02*
X162250000Y-79000000D01*
X161500000Y-84500000D02*
X159000000Y-84500000D01*
X145250000Y-61250000D02*
X145250000Y-65250000D01*
X156250000Y-77250000D02*
X158000000Y-79000000D01*
X155000000Y-61250000D02*
X155000000Y-71250000D01*
X135500000Y-65500000D02*
X138750000Y-65500000D01*
X155000000Y-71250000D02*
X156250000Y-72500000D01*
%TD*%
%TA.AperFunction,Conductor*%
%TO.N,GND*%
G36*
X162754418Y-58750816D02*
G01*
X162954561Y-58765130D01*
X162972063Y-58767647D01*
X163163797Y-58809355D01*
X163180755Y-58814334D01*
X163364609Y-58882909D01*
X163380701Y-58890259D01*
X163552904Y-58984288D01*
X163567784Y-58993849D01*
X163724867Y-59111441D01*
X163738237Y-59123027D01*
X163876972Y-59261762D01*
X163888558Y-59275132D01*
X164006146Y-59432210D01*
X164015711Y-59447095D01*
X164109740Y-59619298D01*
X164117090Y-59635390D01*
X164185662Y-59819236D01*
X164190646Y-59836212D01*
X164232351Y-60027931D01*
X164234869Y-60045442D01*
X164249184Y-60245580D01*
X164249500Y-60254427D01*
X164249500Y-89745572D01*
X164249184Y-89754419D01*
X164234869Y-89954557D01*
X164232351Y-89972068D01*
X164190646Y-90163787D01*
X164185662Y-90180763D01*
X164117090Y-90364609D01*
X164109740Y-90380701D01*
X164015711Y-90552904D01*
X164006146Y-90567789D01*
X163888558Y-90724867D01*
X163876972Y-90738237D01*
X163738237Y-90876972D01*
X163724867Y-90888558D01*
X163567789Y-91006146D01*
X163552904Y-91015711D01*
X163380701Y-91109740D01*
X163364609Y-91117090D01*
X163180763Y-91185662D01*
X163163787Y-91190646D01*
X162972068Y-91232351D01*
X162954557Y-91234869D01*
X162773779Y-91247799D01*
X162754417Y-91249184D01*
X162745572Y-91249500D01*
X133504428Y-91249500D01*
X133495582Y-91249184D01*
X133473622Y-91247613D01*
X133295442Y-91234869D01*
X133277931Y-91232351D01*
X133086212Y-91190646D01*
X133069236Y-91185662D01*
X132885390Y-91117090D01*
X132869298Y-91109740D01*
X132697095Y-91015711D01*
X132682210Y-91006146D01*
X132525132Y-90888558D01*
X132511762Y-90876972D01*
X132373027Y-90738237D01*
X132361441Y-90724867D01*
X132243849Y-90567784D01*
X132234288Y-90552904D01*
X132140259Y-90380701D01*
X132132909Y-90364609D01*
X132072091Y-90201551D01*
X132064334Y-90180755D01*
X132059355Y-90163797D01*
X132017647Y-89972063D01*
X132015130Y-89954556D01*
X132000816Y-89754418D01*
X132000500Y-89745572D01*
X132000500Y-62434108D01*
X134289500Y-62434108D01*
X134289500Y-62565891D01*
X134323608Y-62693187D01*
X134356554Y-62750250D01*
X134389500Y-62807314D01*
X134482686Y-62900500D01*
X134596814Y-62966392D01*
X134724108Y-63000500D01*
X134724110Y-63000500D01*
X134855890Y-63000500D01*
X134855892Y-63000500D01*
X134983186Y-62966392D01*
X135097314Y-62900500D01*
X135190500Y-62807314D01*
X135256392Y-62693186D01*
X135290500Y-62565892D01*
X135290500Y-62434108D01*
X135256392Y-62306814D01*
X135190500Y-62192686D01*
X135097314Y-62099500D01*
X135040250Y-62066554D01*
X134983187Y-62033608D01*
X134919539Y-62016554D01*
X134855892Y-61999500D01*
X134724108Y-61999500D01*
X134596812Y-62033608D01*
X134482686Y-62099500D01*
X134482683Y-62099502D01*
X134389502Y-62192683D01*
X134389500Y-62192686D01*
X134323608Y-62306812D01*
X134289500Y-62434108D01*
X132000500Y-62434108D01*
X132000500Y-60254427D01*
X132000816Y-60245581D01*
X132015130Y-60045443D01*
X132015131Y-60045434D01*
X132017646Y-60027938D01*
X132059356Y-59836199D01*
X132064333Y-59819248D01*
X132132911Y-59635385D01*
X132140259Y-59619298D01*
X132202815Y-59504734D01*
X132234291Y-59447089D01*
X132243845Y-59432221D01*
X132361448Y-59275123D01*
X132373020Y-59261769D01*
X132511769Y-59123020D01*
X132525123Y-59111448D01*
X132682221Y-58993845D01*
X132697089Y-58984291D01*
X132869298Y-58890258D01*
X132885385Y-58882911D01*
X133069248Y-58814333D01*
X133086199Y-58809356D01*
X133277938Y-58767646D01*
X133295436Y-58765130D01*
X133495582Y-58750816D01*
X133504428Y-58750500D01*
X133565892Y-58750500D01*
X162684108Y-58750500D01*
X162745572Y-58750500D01*
X162754418Y-58750816D01*
G37*
%TD.AperFunction*%
%TD*%
M02*
