%TF.GenerationSoftware,KiCad,Pcbnew,9.0.6*%
%TF.CreationDate,2026-02-02T13:39:19-08:00*%
%TF.ProjectId,sensor_unit,73656e73-6f72-45f7-956e-69742e6b6963,rev?*%
%TF.SameCoordinates,Original*%
%TF.FileFunction,Soldermask,Top*%
%TF.FilePolarity,Negative*%
%FSLAX46Y46*%
G04 Gerber Fmt 4.6, Leading zero omitted, Abs format (unit mm)*
G04 Created by KiCad (PCBNEW 9.0.6) date 2026-02-02 13:39:19*
%MOMM*%
%LPD*%
G01*
G04 APERTURE LIST*
G04 Aperture macros list*
%AMRoundRect*
0 Rectangle with rounded corners*
0 $1 Rounding radius*
0 $2 $3 $4 $5 $6 $7 $8 $9 X,Y pos of 4 corners*
0 Add a 4 corners polygon primitive as box body*
4,1,4,$2,$3,$4,$5,$6,$7,$8,$9,$2,$3,0*
0 Add four circle primitives for the rounded corners*
1,1,$1+$1,$2,$3*
1,1,$1+$1,$4,$5*
1,1,$1+$1,$6,$7*
1,1,$1+$1,$8,$9*
0 Add four rect primitives between the rounded corners*
20,1,$1+$1,$2,$3,$4,$5,0*
20,1,$1+$1,$4,$5,$6,$7,0*
20,1,$1+$1,$6,$7,$8,$9,0*
20,1,$1+$1,$8,$9,$2,$3,0*%
%AMFreePoly0*
4,1,64,0.235711,1.439036,0.382774,1.378120,0.515127,1.289684,0.627684,1.177127,0.716120,1.044774,0.777036,0.897711,0.808090,0.741590,0.808090,0.582410,0.777036,0.426289,0.716120,0.279226,0.627684,0.146873,0.515127,0.034316,0.382774,-0.054120,0.235711,-0.115036,0.079590,-0.146090,0.031746,-0.146090,0.029264,-0.147118,-0.029264,-0.147118,-0.031746,-0.146090,-0.079590,-0.146090,
-0.235711,-0.115036,-0.382774,-0.054120,-0.515127,0.034316,-0.627684,0.146873,-0.716120,0.279226,-0.777036,0.426289,-0.808090,0.582410,-0.808090,0.729406,-0.512000,0.729406,-0.512000,0.594594,-0.477108,0.464375,-0.409702,0.347625,-0.314375,0.252298,-0.197625,0.184892,-0.067406,0.150000,0.067406,0.150000,0.197625,0.184892,0.314375,0.252298,0.409702,0.347625,0.477108,0.464375,
0.512000,0.594594,0.512000,0.729406,0.477108,0.859625,0.409702,0.976375,0.314375,1.071702,0.197625,1.139108,0.067406,1.174000,-0.067406,1.174000,-0.197625,1.139108,-0.314375,1.071702,-0.409702,0.976375,-0.477108,0.859625,-0.512000,0.729406,-0.808090,0.729406,-0.808090,0.741590,-0.777036,0.897711,-0.716120,1.044774,-0.627684,1.177127,-0.515127,1.289684,-0.382774,1.378120,
-0.235711,1.439036,-0.079590,1.470090,0.079590,1.470090,0.235711,1.439036,0.235711,1.439036,$1*%
G04 Aperture macros list end*
%ADD10R,0.660400X1.752600*%
%ADD11RoundRect,0.500000X-1.000000X-0.500000X1.000000X-0.500000X1.000000X0.500000X-1.000000X0.500000X0*%
%ADD12RoundRect,0.250000X-1.500000X-1.500000X1.500000X-1.500000X1.500000X1.500000X-1.500000X1.500000X0*%
%ADD13RoundRect,0.250000X-0.900000X-0.400000X0.900000X-0.400000X0.900000X0.400000X-0.900000X0.400000X0*%
%ADD14C,1.300000*%
%ADD15C,0.500000*%
%ADD16RoundRect,0.130500X-0.130500X0.169500X-0.130500X-0.169500X0.130500X-0.169500X0.130500X0.169500X0*%
%ADD17FreePoly0,0.000000*%
%ADD18RoundRect,0.250000X0.262500X0.450000X-0.262500X0.450000X-0.262500X-0.450000X0.262500X-0.450000X0*%
%ADD19R,0.508000X0.355600*%
%ADD20RoundRect,0.250000X-0.250000X-0.475000X0.250000X-0.475000X0.250000X0.475000X-0.250000X0.475000X0*%
G04 APERTURE END LIST*
D10*
%TO.C,U2*%
X158190000Y-76250000D03*
X159460000Y-76250000D03*
X160730000Y-76250000D03*
X162000000Y-76250000D03*
%TD*%
D11*
%TO.C,U1*%
X136020000Y-71500000D03*
X136020000Y-74040000D03*
X136020000Y-76580000D03*
X136020000Y-79120000D03*
X136020000Y-81660000D03*
X136020000Y-84200000D03*
X136020000Y-86740000D03*
X153020000Y-86740000D03*
X153020000Y-84200000D03*
X153020000Y-81660000D03*
X153020000Y-79120000D03*
X153020000Y-76580000D03*
X153020000Y-74040000D03*
X153020000Y-71500000D03*
D12*
X146620000Y-79720000D03*
D13*
X140020000Y-78720000D03*
X140020000Y-76820000D03*
D14*
X143250000Y-70500000D03*
X143250000Y-73080000D03*
X143250000Y-75620000D03*
X145790000Y-75620000D03*
X145790000Y-73080000D03*
X145790000Y-70500000D03*
%TD*%
D15*
%TO.C,MK1*%
X134790000Y-62500000D03*
D16*
X136864000Y-61600000D03*
X136042000Y-61600000D03*
D17*
X134790000Y-63162000D03*
D16*
X136042000Y-63400000D03*
X136864000Y-63400000D03*
X136864000Y-62500000D03*
%TD*%
D18*
%TO.C,R4*%
X159162500Y-82500000D03*
X157337500Y-82500000D03*
%TD*%
%TO.C,R5*%
X159162500Y-80000000D03*
X157337500Y-80000000D03*
%TD*%
D19*
%TO.C,U5*%
X157250000Y-87949998D03*
X157250000Y-87300000D03*
X157250000Y-86649998D03*
X157250000Y-86000000D03*
X159299998Y-86000000D03*
X159299998Y-86649998D03*
X159299998Y-87300000D03*
X159299998Y-87949998D03*
%TD*%
D20*
%TO.C,C3*%
X157550000Y-69520000D03*
X159450000Y-69520000D03*
%TD*%
%TO.C,C2*%
X157550000Y-66510000D03*
X159450000Y-66510000D03*
%TD*%
%TO.C,C1*%
X157550000Y-63500000D03*
X159450000Y-63500000D03*
%TD*%
M02*
