%TF.GenerationSoftware,KiCad,Pcbnew,9.0.6*%
%TF.CreationDate,2026-02-02T13:39:19-08:00*%
%TF.ProjectId,sensor_unit,73656e73-6f72-45f7-956e-69742e6b6963,rev?*%
%TF.SameCoordinates,Original*%
%TF.FileFunction,Paste,Top*%
%TF.FilePolarity,Positive*%
%FSLAX46Y46*%
G04 Gerber Fmt 4.6, Leading zero omitted, Abs format (unit mm)*
G04 Created by KiCad (PCBNEW 9.0.6) date 2026-02-02 13:39:19*
%MOMM*%
%LPD*%
G01*
G04 APERTURE LIST*
G04 Aperture macros list*
%AMRoundRect*
0 Rectangle with rounded corners*
0 $1 Rounding radius*
0 $2 $3 $4 $5 $6 $7 $8 $9 X,Y pos of 4 corners*
0 Add a 4 corners polygon primitive as box body*
4,1,4,$2,$3,$4,$5,$6,$7,$8,$9,$2,$3,0*
0 Add four circle primitives for the rounded corners*
1,1,$1+$1,$2,$3*
1,1,$1+$1,$4,$5*
1,1,$1+$1,$6,$7*
1,1,$1+$1,$8,$9*
0 Add four rect primitives between the rounded corners*
20,1,$1+$1,$2,$3,$4,$5,0*
20,1,$1+$1,$4,$5,$6,$7,0*
20,1,$1+$1,$6,$7,$8,$9,0*
20,1,$1+$1,$8,$9,$2,$3,0*%
G04 Aperture macros list end*
%ADD10C,0.000000*%
%ADD11R,0.660400X1.752600*%
%ADD12RoundRect,0.250000X-0.500000X-0.500000X0.500000X-0.500000X0.500000X0.500000X-0.500000X0.500000X0*%
%ADD13RoundRect,0.500000X-1.000000X-0.500000X1.000000X-0.500000X1.000000X0.500000X-1.000000X0.500000X0*%
%ADD14RoundRect,0.250000X-0.900000X-0.400000X0.900000X-0.400000X0.900000X0.400000X-0.900000X0.400000X0*%
%ADD15C,1.300000*%
%ADD16RoundRect,0.130500X-0.130500X0.169500X-0.130500X-0.169500X0.130500X-0.169500X0.130500X0.169500X0*%
%ADD17RoundRect,0.250000X0.262500X0.450000X-0.262500X0.450000X-0.262500X-0.450000X0.262500X-0.450000X0*%
%ADD18R,0.508000X0.355600*%
%ADD19RoundRect,0.250000X-0.250000X-0.475000X0.250000X-0.475000X0.250000X0.475000X-0.250000X0.475000X0*%
G04 APERTURE END LIST*
D10*
%TO.C,MK1*%
G36*
X134363900Y-62215300D02*
G01*
X134322200Y-62290700D01*
X134293700Y-62372000D01*
X134279300Y-62456900D01*
X134279300Y-62543100D01*
X134293700Y-62628000D01*
X134322200Y-62709300D01*
X134363900Y-62784700D01*
X134149100Y-62999400D01*
X134066700Y-62870000D01*
X134010000Y-62727400D01*
X133981100Y-62576700D01*
X133981100Y-62423300D01*
X134010000Y-62272600D01*
X134066700Y-62130000D01*
X134149100Y-62000600D01*
X134363900Y-62215300D01*
G37*
G36*
X135017400Y-61720000D02*
G01*
X135160000Y-61776700D01*
X135289400Y-61859100D01*
X135074700Y-62073900D01*
X134999300Y-62032200D01*
X134918000Y-62003700D01*
X134833100Y-61989300D01*
X134746900Y-61989300D01*
X134662000Y-62003700D01*
X134580700Y-62032200D01*
X134505300Y-62073900D01*
X134290600Y-61859100D01*
X134420000Y-61776700D01*
X134562600Y-61720000D01*
X134713300Y-61691100D01*
X134866700Y-61691100D01*
X135017400Y-61720000D01*
G37*
G36*
X135289400Y-63140900D02*
G01*
X135160000Y-63223300D01*
X135017400Y-63280000D01*
X134866700Y-63308900D01*
X134713300Y-63308900D01*
X134562600Y-63280000D01*
X134420000Y-63223300D01*
X134290600Y-63140900D01*
X134505300Y-62926100D01*
X134580700Y-62967800D01*
X134662000Y-62996300D01*
X134746900Y-63010700D01*
X134833100Y-63010700D01*
X134918000Y-62996300D01*
X134999300Y-62967800D01*
X135074700Y-62926100D01*
X135289400Y-63140900D01*
G37*
G36*
X135513300Y-62130000D02*
G01*
X135570000Y-62272600D01*
X135598900Y-62423300D01*
X135598900Y-62576700D01*
X135570000Y-62727400D01*
X135513300Y-62870000D01*
X135430900Y-62999400D01*
X135216100Y-62784700D01*
X135257800Y-62709300D01*
X135286300Y-62628000D01*
X135300700Y-62543100D01*
X135300700Y-62456900D01*
X135286300Y-62372000D01*
X135257800Y-62290700D01*
X135216100Y-62215300D01*
X135430900Y-62000600D01*
X135513300Y-62130000D01*
G37*
%TD*%
D11*
%TO.C,U2*%
X158190000Y-76250000D03*
X159460000Y-76250000D03*
X160730000Y-76250000D03*
X162000000Y-76250000D03*
%TD*%
D12*
%TO.C,U1*%
X145620000Y-78720000D03*
X145620000Y-80720000D03*
X147620000Y-78720000D03*
X147620000Y-80720000D03*
D13*
X136020000Y-71500000D03*
X136020000Y-74040000D03*
X136020000Y-76580000D03*
X136020000Y-79120000D03*
X136020000Y-81660000D03*
X136020000Y-84200000D03*
X136020000Y-86740000D03*
X153020000Y-86740000D03*
X153020000Y-84200000D03*
X153020000Y-81660000D03*
X153020000Y-79120000D03*
X153020000Y-76580000D03*
X153020000Y-74040000D03*
X153020000Y-71500000D03*
D14*
X140020000Y-78720000D03*
X140020000Y-76820000D03*
D15*
X143250000Y-70500000D03*
X143250000Y-73080000D03*
X143250000Y-75620000D03*
X145790000Y-75620000D03*
X145790000Y-73080000D03*
X145790000Y-70500000D03*
%TD*%
D16*
%TO.C,MK1*%
X136864000Y-61600000D03*
X136042000Y-61600000D03*
X136042000Y-63400000D03*
X136864000Y-63400000D03*
X136864000Y-62500000D03*
%TD*%
D17*
%TO.C,R4*%
X159162500Y-82500000D03*
X157337500Y-82500000D03*
%TD*%
%TO.C,R5*%
X159162500Y-80000000D03*
X157337500Y-80000000D03*
%TD*%
D18*
%TO.C,U5*%
X157250000Y-87949998D03*
X157250000Y-87300000D03*
X157250000Y-86649998D03*
X157250000Y-86000000D03*
X159299998Y-86000000D03*
X159299998Y-86649998D03*
X159299998Y-87300000D03*
X159299998Y-87949998D03*
%TD*%
D19*
%TO.C,C3*%
X157550000Y-69520000D03*
X159450000Y-69520000D03*
%TD*%
%TO.C,C2*%
X157550000Y-66510000D03*
X159450000Y-66510000D03*
%TD*%
%TO.C,C1*%
X157550000Y-63500000D03*
X159450000Y-63500000D03*
%TD*%
M02*
